<?xml version="1.0" encoding="utf-8"?>
<!-- Generator: Adobe Illustrator 20.1.0, SVG Export Plug-In . SVG Version: 6.00 Build 0)  -->
<svg version="1.1" id="Layer_1" xmlns="http://www.w3.org/2000/svg" xmlns:xlink="http://www.w3.org/1999/xlink" x="0px" y="0px"
	 viewBox="0 0 64 64" style="enable-background:new 0 0 64 64;" xml:space="preserve">
<g>
	<path d="M52.9,45.4c-1.1-1.7-2.5-3.2-3.9-4.6c-4.2-4.4-8.9-8.3-13.6-12.2c-1.6-1.3-3.5-2.5-4.9-4c-2-2.1-3.9-4.3-6-6.3
		c-0.6-0.6-0.6-1.3-0.1-1.8c0.4-0.5,0.6-0.8,0.3-1.5c-0.2-0.4-0.4-0.9-0.7-0.9c-0.4,0-0.6,0.6-0.9,0.9c-0.1,0.1-0.1,0.4,0,0.6
		c0.2,0.5,0.1,0.9,0.1,1.6c-0.7-0.7-0.6-1.4-0.4-2.1c0.2-0.7-0.1-1.3-0.6-1.5c-0.8-0.3-1.6-0.5-2.5-0.4c-0.1,0-0.3,0.2-0.4,0
		c-0.3-0.9-0.5-0.1-0.8,0c-0.2,0.1-0.4,0.5-0.6,0c-0.5-1.2-1.6-1.1-2.6-1.3c-0.7-0.1-0.6,0.1-0.6,0.6c0,0.4-0.2,1-0.6,0.8
		c-0.8-0.3-1.4,0.5-2.2,0.3c-0.2,0-0.2,0.1-0.2,0.3c0.1,0.9,0.1,1.8,0.7,2.6c0.2,0.3,0.3,0.7,0.1,1c-0.4,0.8-0.4,1.5-0.1,2.3
		c0.1,0.1,0.2,0.2,0.1,0.3c-0.1,0.1-0.2,0-0.3-0.1c-0.3,0.5-0.8,0.6-1.4,0.6c-0.3,0-0.7-0.1-0.5,0.4c0.4,0.8,0.4,1.7,0.8,2.5
		c0.6,1.1,1.3,1.7,2.5,1.4c1.2-0.3,1.8-0.2,2.6,0.3c-3.7,0.7-3.7,0.7-4.2,1.4c0.8-0.1,1.3,0.6,2.1,0.7c0.5,0.1,0.9,0.2,1.3-0.1
		c1.4-1.2,1.9-1.2,3.4-0.1c0.2,0.2,0.5,0.3,0.7,0.5c2.7,2,5.6,3.7,7.9,6.2c4.3,4.8,8.9,9.4,13.8,13.7c1.5,1.3,3.1,2.3,4.6,3.6
		c1.4,1.2,2.9,1.2,4.5,0.2c0.8-0.5,1.5-1.1,2.1-1.8C53.9,48.2,54,47.1,52.9,45.4z M26.3,22.9c1.6,2.1,5.2,8.8,5.2,8.8
		s-3.7-5.9-5.1-8.1C26,22.8,24.1,20,24.1,20S25.8,22.2,26.3,22.9z M23.8,19.8c-0.9-0.6-1.3-1.6-2.1-2.1
		C22.7,17.8,23.6,18.8,23.8,19.8z M20.4,19.8c0.4,0.5,0.9,0.9,1,1.5c-0.4-0.5-0.8-0.9-1.2-1.4C20.2,20,20.3,19.9,20.4,19.8z
		 M19.4,21.4c0.9,0.8,3,3.4,3.2,4C19.6,23.8,18.8,22.8,19.4,21.4z M17.2,23.2c1.8,1.4,3.5,2.8,5.4,4.2
		C21.2,27.4,17.2,24.2,17.2,23.2z M34.4,34.7c-2.3-1.8-11.3-7.1-11.3-7.1s9,5,11.3,6.7c4.3,3.1,16.3,12,16.3,12S38.7,37.9,34.4,34.7
		z"/>
</g>
</svg>
