<?xml version="1.0" encoding="utf-8"?>
<!-- Generator: Adobe Illustrator 20.1.0, SVG Export Plug-In . SVG Version: 6.00 Build 0)  -->
<svg version="1.1" id="Layer_1" xmlns="http://www.w3.org/2000/svg" xmlns:xlink="http://www.w3.org/1999/xlink" x="0px" y="0px"
	 viewBox="0 0 64 64" style="enable-background:new 0 0 64 64;" xml:space="preserve">
<g>
	<path d="M31.1,45.6c1-2.1,1.9-4.3,2.6-6.6c0.5,0.6,1.4,0.9,2.5,0.9c1.1,0,2.1-0.4,3-1c4.2-2.5,6-6.5,6.3-11.4
		c-2.4,2.8-5.7,3.7-8.8,5c-0.6,0.2-1.1,0.5-1.5,0.9c0.3-1.4,0.5-2.9,0.6-4.4c1.4,1.2,2.9,1.1,4.3-0.1c3.6-3.2,3.7-12.8-0.1-16.5
		c-0.3,3.8-2.5,6.6-4.3,9.7c-0.1-1-0.3-2-0.5-2.9c0.9-0.9,1.2-2.4,0.6-4.4c-1-3.4-3.6-6.1-4.1-10.2c-3.1,4.6-3.2,9-1,15
		c-1.9-0.7-2.4-2.8-4.2-4.1c-0.7,4.1-0.7,7.7,1,11.2c1.3,2.8,3.2,3.6,5,2.5c-0.3,2.1-0.7,4.1-1.2,6.1c-0.1-0.5-0.3-1.1-0.5-1.7
		c-0.1-0.3-0.3-0.6-0.5-0.9c-1.9-2.3-4.1-4.5-6-7.6c-1,4.2-1.3,7.9,0.1,11.4c1,2.5,3.2,3.5,5.2,2.7c0.2-0.1,0.4-0.2,0.5-0.3
		c-0.7,1.7-1.8,3.8-3,6c-0.3-1.2-0.9-2.3-1.9-3.3c-1.5-1.5-2.9-3.2-3.8-5.2c-0.4-0.8-1.1-1.6-1.6-0.1c-1.3,3.9-2,7.7,0.1,11.6
		c1.1,2.1,2.4,3,3.9,2.7c-0.7,1.3-1.4,2.4-2,3.3c-0.6,1-1.2,2.3,0.2,3.1c1.4,0.9,2.6,0,3.4-1.2c0.6-1,1.2-1.9,1.8-2.9
		c0.8,1.3,2.4,1.5,5.1,0.7c6.1-1.8,9.4-6.3,11.7-12.7c-3.2,1.7-5.9,3.1-8.8,3.6C33.7,44.8,32.4,45.1,31.1,45.6z M32.6,20.1
		c0,0.8,0.1,1.6,0.1,2.4c-0.7-0.8-1.5-1.6-1.9-2.7C31.5,20,32.1,20.1,32.6,20.1z"/>
</g>
</svg>
