<?xml version="1.0" encoding="utf-8"?>
<!-- Generator: Adobe Illustrator 20.1.0, SVG Export Plug-In . SVG Version: 6.00 Build 0)  -->
<svg version="1.1" id="Layer_1" xmlns="http://www.w3.org/2000/svg" xmlns:xlink="http://www.w3.org/1999/xlink" x="0px" y="0px"
	 viewBox="0 0 64 64" style="enable-background:new 0 0 64 64;" xml:space="preserve">
<g id="iLlr5S_2_">
	<g>
		<path d="M37,40.1c-1.1,1.4-2.3,2.5-3.9,3.1c-2.4,0.9-4.8,0.9-6.9-0.6c-1.6-1.1-2-2.5-1.2-4.2c0.5-1.1,1.2-2,2.1-2.7
			c0.3-0.2,0.7-0.4,1-0.1c0.4,0.3,0.2,0.6,0.1,1c-0.1,0.4-0.2,0.7-0.3,1.1c-0.2,1,0.1,1.6,1.1,2c2.2,0.7,4.2,0.4,6-0.9
			c1.2-0.8,1.5-2.2,1.6-3.5c0.2-3.1,0-6.3-0.4-9.4c-0.1-0.8-0.4-1.4-0.9-2c-0.3-0.4-0.3-0.7,0-1.1c1-1.1,2.3-1.9,3.7-2.4
			c0.3-0.1,0.6-0.2,1-0.2c1.2,0,1.8,0.7,1.6,1.8c-0.2,0.9-0.4,1.9-0.6,2.8c-0.5,2.8-0.9,5.7-1.1,8.5c-0.1,1.4-0.1,2.9-0.1,4.3
			c-0.1,2.5,1.6,3.4,3.8,3.3c1.1-0.1,2.3-0.3,3.4-0.6c0.6-0.1,1.2-0.3,1.8-0.3c0.3,0,0.6,0,0.7-0.3c0.1-0.3-0.3-0.4-0.5-0.6
			c-1.1-0.6-2.3-1-3.5-1.1c-0.9-0.1-1.9-0.2-2.8-0.4c-0.5-0.1-0.9-0.3-1-0.9c-0.1-0.5,0.3-0.9,0.8-1c2.3-1,4.7-1.6,7.1-0.1
			c1.3,0.8,2.5,1.7,3.8,2.5c0.6,0.4,1.3,0.7,2.1,0.7c0.3,0,0.6,0.1,0.9,0.1c0.7,0.1,0.9,0.6,1,1.2c0.1,0.6-0.2,1.2-0.8,1.3
			c-2.2,0.3-4.1,1.3-6.2,1.7c-2.3,0.4-4.6,0.8-6.9,0.9C40.6,44,38,43,37,40.1z"/>
		<path d="M22.6,30.3c0,2.6-0.1,5-0.8,7.2c-0.5,1.6-1.3,2.9-3,3.5c-1.2,0.4-2.3,0.7-3.5,0.9c-1.7,0.4-3.3,0.6-5.1,0.5
			c-3.4-0.1-4.2-2.5-3.3-5c0.5-1.3,1.4-2.3,2.6-3c0.7-0.4,1.3-0.2,1.7,0.4c0.4,0.5,0.2,1-0.4,1.5c-0.2,0.2-0.4,0.3-0.6,0.5
			c-0.5,0.6-0.4,1.4,0.3,1.8c0.8,0.5,1.7,0.6,2.5,0.6c1.2,0,2.5-0.1,3.7-0.5c1.1-0.4,1.7-1.1,1.9-2.2c0.2-1.1,0.1-2.2,0-3.3
			c-0.1-3.1-0.8-6.1-1.3-9.2c-0.2-1.4,1.1-3.3,2.6-3.5c0.7-0.1,1.3,0.3,1.7,1c0.4,0.9,0.5,1.8,0.5,2.7
			C22.4,26.4,22.7,28.5,22.6,30.3z"/>
		<path d="M35.7,34.8c0,0.4,0,0.7-0.1,1c0,0.3-0.1,0.6-0.4,0.7c-0.3,0.1-0.6-0.1-0.8-0.3c-0.5-0.6-0.9-1.3-1.1-2.1
			c-0.3-1.4-0.7-2.7-1.6-3.9c-1.2-1.6-2.8-2.6-4.5-3.6c-1.6-0.9-1.8-2.2-0.5-3.5c0.4-0.5,0.9-0.8,1.4-1.2c0.7-0.5,1.4-0.4,2,0.1
			c0.8,0.7,1.2,1.5,1.7,2.4c1.3,2.2,2.7,4.3,3.3,6.8C35.6,32.4,35.6,33.6,35.7,34.8z"/>
	</g>
</g>
<path d="M32,3c16,0,29,13,29,29S48,61,32,61S3,48,3,32S16,3,32,3 M32,0C14.3,0,0,14.3,0,32s14.3,32,32,32s32-14.3,32-32S49.7,0,32,0
	L32,0z"/>
</svg>
