<?xml version="1.0" encoding="utf-8"?>
<!-- Generator: Adobe Illustrator 20.1.0, SVG Export Plug-In . SVG Version: 6.00 Build 0)  -->
<svg version="1.1" id="Layer_1" xmlns="http://www.w3.org/2000/svg" xmlns:xlink="http://www.w3.org/1999/xlink" x="0px" y="0px"
	 viewBox="0 0 64 64" style="enable-background:new 0 0 64 64;" xml:space="preserve">
<g>
	<g>
		<path d="M44,36.6c-4.3-1.8-8.6-3.8-12.8-5.7c-4.4-1.9-8.8-3.8-13.1-5.9c-1.7-0.8-2.6-0.4-3.5,1.2c-5.6,9.6-4.3,18.5,2,27.2
			c1.7,2.4,2.9,3.1,6.3,3c11.8-0.3,18.2-6.7,22.5-16.3C46.3,38.3,45.8,37.3,44,36.6z M40.8,39.3c-0.1,0.9-0.2,2-0.6,2.7
			c-3.6,5.7-9.4,8.4-15.8,10.9c0.3-1.8,1.4-2.2,2.2-2.8c3.6-3,6.8-6.2,8.7-10.6c0.3-0.7,0.8-1.3,1.3-1.9c0.7-0.8,1.7-1.4,2.9-0.9
			C40.7,37.2,40.9,38.3,40.8,39.3z"/>
		<path d="M51.5,21.2c-1.4-2.6-3.6-4.2-5.9-5.8c-1.8-1.3-2.8-2.9-2.2-5.1c0.2-0.9,0.6-1.9-0.7-2.4c-1.2-0.5-1.8,0.1-2.4,1
			c-1.3,1.8-3.2,2.1-5.2,1.8c-2.2-0.3-4.4-0.7-6.7-1C25,9.1,22.1,10,20,12.6c-1.4,1.6-2.5,3.3-3,5.4c-0.9,3.8-1.1,3.8,2.7,5.5
			c4.1,1.8,8.2,3.6,12.3,5.5c4.4,1.9,8.7,3.9,13.1,5.8c0.1,0,0.2,0.1,0.3,0.1c2,1.2,3.4,0.5,4.8-1.1C53.4,30.2,53.9,25.6,51.5,21.2z
			 M50.1,29c-0.1,0.1-0.3,0.4-0.6,0.5c-0.6,0.1-0.9-0.4-1-0.9c-0.8-3.1-3.2-4.9-5.8-6.5c-1.5-0.9-2.3-2.3-1.1-3.8
			c1.1-1.5,2.6-1,3.9-0.2C49.3,20.1,51.7,25.7,50.1,29z"/>
	</g>
</g>
<path d="M32,3c16,0,29,13,29,29S48,61,32,61S3,48,3,32S16,3,32,3 M32,0C14.3,0,0,14.3,0,32s14.3,32,32,32s32-14.3,32-32S49.7,0,32,0
	L32,0z"/>
</svg>
