<?xml version="1.0" encoding="utf-8"?>
<!-- Generator: Adobe Illustrator 20.1.0, SVG Export Plug-In . SVG Version: 6.00 Build 0)  -->
<svg version="1.1" id="Layer_1" xmlns="http://www.w3.org/2000/svg" xmlns:xlink="http://www.w3.org/1999/xlink" x="0px" y="0px"
	 viewBox="0 0 64 64" style="enable-background:new 0 0 64 64;" xml:space="preserve">
<g>
	<path d="M21.9,28.7h1.8c0.7,0,1.4-0.1,1.8-0.3c0.5-0.2,0.9-0.5,1.3-0.9l11.6-14.2c0.5-0.6,1-1,1.5-1.3c0.5-0.2,1.2-0.4,2-0.4h6.8
		L34.6,28.6c-0.4,0.5-0.9,1-1.3,1.3c-0.4,0.4-0.8,0.6-1.3,0.9c0.6,0.2,1.2,0.5,1.7,1c0.5,0.4,1,0.9,1.5,1.6l14.6,19.1H43
		c-0.9,0-1.6-0.1-2.1-0.4c-0.5-0.3-0.8-0.6-1.2-1.1l-11.9-15c-0.4-0.5-0.8-0.8-1.3-1.1s-1.2-0.3-2.1-0.3h-2.5v17.9h-7.8V11.6h7.8
		V28.7z"/>
</g>
<path d="M32,3c16,0,29,13,29,29S48,61,32,61S3,48,3,32S16,3,32,3 M32,0C14.3,0,0,14.3,0,32s14.3,32,32,32s32-14.3,32-32S49.7,0,32,0
	L32,0z"/>
</svg>
