<?xml version="1.0" encoding="utf-8"?>
<!-- Generator: Adobe Illustrator 20.1.0, SVG Export Plug-In . SVG Version: 6.00 Build 0)  -->
<svg version="1.1" id="Layer_1" xmlns="http://www.w3.org/2000/svg" xmlns:xlink="http://www.w3.org/1999/xlink" x="0px" y="0px"
	 viewBox="0 0 64 64" style="enable-background:new 0 0 64 64;" xml:space="preserve">
<g>
	<g>
		<path d="M39.4,6.3C32.1,5.8,26.7,9.8,25.8,17c-0.7,5.5-2.4,10.5-5.9,14.9c-2.1,2.6-3.4,5.7-4.1,9C14,49.6,21,57.8,30.4,57.7
			c2.1,0.1,4.3-0.5,6.4-1.6c6-3.4,9.6-10.5,8.5-17.3c-0.6-4.1-0.3-8,1.2-11.9c1-2.6,1.8-5.4,2.7-8.1C50.8,13.6,45.6,6.7,39.4,6.3z
			 M36.1,42.3c0.1,1.2-0.5,2.5-1.5,3.6c-0.7,0.8-1.5,1.2-2.3,1.2c0,0-0.1,0-0.1,0c-2.1,0-2.4-1.9-2.4-2.6l0-0.1
			c0-1.3,0.6-2.7,1.6-3.7c0.7-0.7,1.5-1.1,2.3-1.1c0,0,0,0,0,0C34.7,39.7,36,40.2,36.1,42.3z M29.2,32.1c0.7-0.6,1.4-1,2.1-0.9
			c1,0,2.3,0.5,2.4,2.7v0c0,1.4-0.7,2.9-1.8,3.9c-0.6,0.6-1.3,0.9-2,0.9c0,0-0.1,0-0.1,0c-1.1,0-2.4-0.6-2.4-2.9
			C27.5,34.5,28.2,33.1,29.2,32.1z M29.1,42.3c0,1.2-0.7,2.7-1.7,3.7c-0.7,0.7-1.5,1-2.2,1c0,0,0,0-0.1,0c-1,0-2.2-0.5-2.4-2.6
			c-0.1-1.2,0.5-2.6,1.4-3.6c0.7-0.8,1.5-1.2,2.3-1.3c0.7,0,1.3,0.2,1.7,0.7C28.8,40.7,29.1,41.4,29.1,42.3z M22.9,32
			c0.7-0.7,1.6-1,2.3-1c2,0.2,2.2,2,2.2,2.5l0,0c0,1.4-0.7,2.9-1.7,3.9c-0.7,0.6-1.4,1-2.1,1c0,0-0.1,0-0.1,0
			c-0.9,0-2.4-0.5-2.4-2.9C21.2,34.5,21.9,33,22.9,32z M19.5,47.3c-0.1,0-0.1,0-0.2,0c-1.9,0-2.3-1.7-2.5-2.9c0-0.2-0.1-0.4-0.1-0.6
			l0-0.1l0.1-0.6c0.3-1.5,0.6-3.5,2.9-3.6c0.8,0,1.4,0.2,1.9,0.6c0.8,0.8,0.9,2.1,0.9,3C22.5,46.4,20.9,47.2,19.5,47.3z M24.2,54.9
			C24.2,54.9,24.2,54.9,24.2,54.9c-0.8,0-1.5-0.4-2.2-1c-1-1-1.7-2.5-1.7-3.9l0,0c0.1-2.2,1.4-2.6,2.6-2.5c1.8,0.1,3.7,2.4,3.7,4.6
			C26.6,54.3,25.3,54.9,24.2,54.9z M29.8,56.2c0,0-0.1,0-0.1,0c-0.6,0-1.1-0.2-1.5-0.6c-0.5-0.5-0.9-1.3-0.9-2.2v0
			c0-1.3,0.6-2.7,1.6-3.7c0.7-0.7,1.5-1.1,2.2-1.1c0,0,0,0,0,0c1.1,0,2.4,0.5,2.5,2.8C33.7,53.5,31.6,56.2,29.8,56.2z M39.3,50.5
			c-0.7,0.7-1.5,1.1-2.3,1.1c0,0-0.1,0-0.1,0c-1,0-2.2-0.5-2.3-2.4l0,0c0-1.3,0.6-2.8,1.6-3.9c0.7-0.7,1.5-1.1,2.2-1.1c0,0,0,0,0,0
			c1.6,0,2.4,0.9,2.4,2.8C40.9,48.2,40.3,49.5,39.3,50.5z"/>
	</g>
</g>
<path d="M32,3c16,0,29,13,29,29S48,61,32,61S3,48,3,32S16,3,32,3 M32,0C14.3,0,0,14.3,0,32s14.3,32,32,32s32-14.3,32-32S49.7,0,32,0
	L32,0z"/>
</svg>
