<?xml version="1.0" encoding="utf-8"?>
<!-- Generator: Adobe Illustrator 20.1.0, SVG Export Plug-In . SVG Version: 6.00 Build 0)  -->
<svg version="1.1" id="Layer_1" xmlns="http://www.w3.org/2000/svg" xmlns:xlink="http://www.w3.org/1999/xlink" x="0px" y="0px"
	 viewBox="0 0 64 64" style="enable-background:new 0 0 64 64;" xml:space="preserve">
<path d="M51.9,35.2c-1,0.3-1.9,0.7-2.7,1.2c-0.1-1.1-0.4-2.1-0.9-3c0.1-0.1,0.1-0.1,0.2-0.2c0.1-0.1,0.1-0.1,0.2-0.2
	c0.1-0.1,0.2-0.1,0.2-0.1c0.3-0.2,0.7-0.3,1-0.5c0.3-0.1,0.5-0.3,0.6-0.5c0-0.2,0-0.3-0.1-0.5c-0.2-0.6-0.5-1.1-0.7-1.7
	c0,0,0-0.1,0-0.1C49,27.3,48.4,25,47,23.2c-0.2-0.3-0.5-0.6-0.6-0.9c-0.1-0.2-0.1-0.5-0.1-0.8c-0.1-0.8-0.1-1.6-0.3-2.4
	c-0.3-0.8-0.7-1.6-1.3-2.3c-0.6-0.8-1.3-1.5-2.2-2c-1.3-0.7-3-0.6-4.3,0.1c0.1,0.7,0.9,0.9,1.5,1.2c0.4,0.2,0.7,0.6,1,0.9
	c0.3,0.4,0.7,0.7,1,1.1c-0.9-0.2-2-0.6-2.1-1.5c-0.4,0-0.8,0.4-0.9,0.8c-0.1,0.4,0,0.8,0.2,1.2c0.4,1.4,1,2.7,1.8,3.9
	c0.2,0.3,0.4,0.6,0.6,0.8c0.9,0.9,2.1,1.4,3.4,1.8c-0.2,0.6,0,1.2,0.3,1.8c0.8,1.5,1.7,2.9,2.8,4.2c-0.1,0.3-0.3,0.5-0.6,0.7
	c-3-2.6-8.6-3.1-15.1-3.1c-6.4,0-11.9,0.2-14.9,2.7c-0.3-0.2-0.5-0.5-0.6-0.7c1.1-1.3,2-2.7,2.8-4.2c0.3-0.6,0.6-1.2,0.3-1.8
	c1.2-0.4,2.5-0.9,3.4-1.8c0.2-0.3,0.4-0.5,0.6-0.8c0.8-1.2,1.4-2.5,1.8-3.9c0.1-0.4,0.2-0.8,0.2-1.2c-0.1-0.4-0.4-0.8-0.9-0.8
	c-0.2,0.9-1.2,1.3-2.1,1.5c0.3-0.4,0.7-0.7,1-1.1c0.3-0.3,0.6-0.7,1-0.9c0.6-0.4,1.4-0.6,1.5-1.2c-1.3-0.8-3-0.8-4.3-0.1
	c-0.9,0.5-1.6,1.2-2.2,2c-0.5,0.7-1,1.4-1.3,2.3c-0.2,0.8-0.3,1.6-0.3,2.4c0,0.3,0,0.5-0.1,0.8c-0.1,0.4-0.4,0.6-0.6,0.9
	c-1.5,1.8-2.1,4.1-2.6,6.3c0,0.1,0,0.1,0,0.1c-0.3,0.5-0.5,1.1-0.7,1.7c-0.1,0.2-0.1,0.3-0.1,0.5c0.1,0.3,0.4,0.4,0.6,0.5
	c0.3,0.2,0.7,0.3,1,0.5c0.1,0,0.2,0.1,0.2,0.1c0.1,0.1,0.1,0.1,0.2,0.2c0,0,0.1,0.1,0.1,0.1c-0.6,0.9-1,2-1.1,3.3
	c-0.8-0.4-1.6-0.8-2.5-1c-2.6,1.5-5,3.4-7.2,5.4c0.4,0.2,0.9,0.2,1.3,0.1c0.4-0.2,0.8-0.4,1.2-0.7c1.6-1.1,3.2-2,5-2.7
	c0.5,0.9,1.3,1.5,2.1,2.1c0.2,0.2,0.4,0.3,0.6,0.5c0,0,0,0.1,0,0.1c-0.5-0.1-1.1-0.2-1.7-0.2c-1.9,1.8-3.5,3.8-4.9,6
	c0.4,0.1,0.8,0,1.1-0.2c0.3-0.2,0.6-0.5,0.8-0.8c1.1-1.2,2.3-2.3,3.7-3.3c0.6,0.6,1.4,1,2.2,1.4c0.3,0.1,0.6,0.3,0.9,0.4
	c0.1,0.1,0.2,0.2,0.3,0.3c-0.5,0-0.9,0.1-1.4,0.2c-1.2,2-2.1,4.1-2.7,6.3c0.4,0,0.7-0.2,0.9-0.4c0.2-0.3,0.4-0.6,0.5-0.9
	c0.6-1.3,1.4-2.6,2.3-3.7c0.7,0.4,1.5,0.5,2.2,0.7c0.4,0.1,0.7,0.1,1.1,0.2c0,0,0,0,0,0c3,1.9,7,3.1,11.3,3.1
	c4.9,0,9.4-1.5,12.5-3.8c0.1,0,0.1,0,0.2,0c0.8-0.1,1.6-0.3,2.2-0.7c0.9,1.1,1.7,2.4,2.3,3.7c0.1,0.3,0.3,0.6,0.5,0.9
	c0.2,0.3,0.6,0.5,0.9,0.4C50,47.1,49,45,47.9,43c-0.4-0.1-0.7-0.1-1.1-0.2c0-0.1,0.1-0.1,0.1-0.2c0.1-0.1,0.3-0.1,0.4-0.2
	c0.8-0.3,1.7-0.6,2.3-1.2c1.3,1.1,2.4,2.2,3.4,3.6c0.2,0.3,0.5,0.6,0.8,0.9c0.3,0.2,0.7,0.4,1.1,0.3c-1.2-2.3-2.7-4.4-4.4-6.4
	c-0.5,0-1,0-1.5,0.1c0.2-0.1,0.3-0.2,0.5-0.4c0.8-0.6,1.6-1.3,2.1-2.1c1.8,0.7,3.5,1.6,5,2.7c0.4,0.3,0.7,0.5,1.2,0.7
	c0.4,0.2,0.9,0.2,1.3-0.1C56.9,38.5,54.5,36.7,51.9,35.2z"/>
</svg>
