<?xml version="1.0" encoding="utf-8"?>
<!-- Generator: Adobe Illustrator 20.1.0, SVG Export Plug-In . SVG Version: 6.00 Build 0)  -->
<svg version="1.1" id="Layer_1" xmlns="http://www.w3.org/2000/svg" xmlns:xlink="http://www.w3.org/1999/xlink" x="0px" y="0px"
	 viewBox="0 0 64 64" style="enable-background:new 0 0 64 64;" xml:space="preserve">
<g>
	<g>
		<path d="M49.7,35.7c0,11.8-7.9,21.4-17.7,21.4s-17.7-9.6-17.7-21.4S22.2,6.9,32,6.9c3.7,0,7.1,2.4,9.9,6c0.1,0.1-1.3,1.7-1.3,1.7
			l0.3,1.2l-1.2-0.2L39.5,16l-1.1-0.1l0.3,1.2l-0.4,0.4l0.3,0.9l-0.8-0.1l-1,1.7c0,0,0.5-0.2,1-0.6c0.2-0.1,0.6-0.5,0.6-0.5l1.1,0.4
			l-0.4-1l0.4-0.3l0.1-1.1l0.9,0.3l0.3-0.2l1.2,0.3l-0.1-1.2c0,0,1.5-1.2,1.5-1.1C47.3,20.9,49.7,29.1,49.7,35.7z"/>
	</g>
</g>
</svg>
