<?xml version="1.0" encoding="utf-8"?>
<!-- Generator: Adobe Illustrator 20.1.0, SVG Export Plug-In . SVG Version: 6.00 Build 0)  -->
<svg version="1.1" id="Layer_1" xmlns="http://www.w3.org/2000/svg" xmlns:xlink="http://www.w3.org/1999/xlink" x="0px" y="0px"
	 viewBox="0 0 64 64" style="enable-background:new 0 0 64 64;" xml:space="preserve">
<g>
	<g>
		<path d="M20.5,20.6c-9.1,3.8-15,11.9-15,11.9c0,0.1,4,4.7,8.2,3.6c0.2-0.1,0.2,0.5,0.1,0.7c-0.3,0.4-0.9,0.4-1.4,0.4
			c-2.5,0-5.2-2.1-6.6-3.3c1.9,2.3,7.2,8,14,11.1C25,36.8,21.3,23.3,20.5,20.6z M15,33.3c-1.3,0-2.3-1-2.3-2.2c0-1.2,1-2.2,2.3-2.2
			c1.3,0,2.3,1,2.3,2.2C17.2,32.3,16.2,33.3,15,33.3z"/>
		<path d="M49.9,29.8c-1.8-1.9-4.3-4.2-7.4-6.3c-0.6-0.4-0.9-1.6-3.6-3.6c-4.2-3.2-4.5-2.9-8.4-3.1c-0.3,0-1.3,2-1.6,2
			c-2.6,0-5,0.5-7.3,1.4c0.8,2.5,4.7,16.4-0.7,25.3c2.1,0.8,4.2,1.4,6.5,1.6c0.5,0,1,0.1,1.5,0.1c0.8,0,1.5,0,2.3-0.1
			c1.2-0.1,2.4-0.4,3.6-0.8c7.1-2.2,12.9-7.6,15.9-10.8c0,0,5.3,7.4,7.2,6.6c2.1-0.9-0.6-5.4-0.8-10c-0.2-4.4,2.1-8.8,0.7-9.6
			C55.7,21.2,49.9,29.8,49.9,29.8z"/>
	</g>
</g>
</svg>
