<?xml version="1.0" encoding="utf-8"?>
<!-- Generator: Adobe Illustrator 20.1.0, SVG Export Plug-In . SVG Version: 6.00 Build 0)  -->
<svg version="1.1" id="Layer_1" xmlns="http://www.w3.org/2000/svg" xmlns:xlink="http://www.w3.org/1999/xlink" x="0px" y="0px"
	 viewBox="0 0 64 64" style="enable-background:new 0 0 64 64;" xml:space="preserve">
<g>
	<path d="M54.9,28.5C52.8,17,42,8.8,29.1,8.8c-5.5-0.2-10.6,1.6-15,5.2c-2.5,2.1-4.1,4.7-4.6,7.9C8.9,26,9.7,29.8,11,33.6
		c0.4,1.3,0.6,2.4-0.5,3.5C8,39.6,8.2,40.5,11,42.5c0.9,0.6,1.8,1.2,2.8,1.6c2.2,1,4.3,2.1,5.7,4.1c0.7,1.1,1.9,1.3,3.2,1.2
		c1.6-0.1,2.9,0.5,3.9,1.7c0.8,0.9,1.7,1.8,2.6,2.6c2.6,2.4,4.4,2.1,5.6-1.1c0.7-1.8,1.8-2.7,3.7-2.9c1-0.1,2-0.5,3-0.7
		C53,46.6,56.4,36.4,54.9,28.5z M16.5,39.9c-0.9-9.3,0-18.4,3.6-27.3C18,21.6,17.2,30.8,16.5,39.9z M19.1,39.7
		c-0.6-11.1,4.9-20.1,11-28.9C25.4,20.1,19.7,29.1,19.1,39.7z M36.8,15C31,24.1,25.4,33.3,20.4,42.7C24.1,32.6,29.8,23.5,36.8,15z
		 M21.6,45.5c7.7-8.5,15.9-16.7,23.1-25.7C38.6,29.6,30.3,37.7,21.6,45.5z M24,47.1c9.2-5.5,19-10.4,26.6-18
		C43.7,37.8,34,42.6,24,47.1z M28,48.2c8.8-2.4,17-5.9,24.6-10.8C45.6,43.4,37.4,46.9,28,48.2z"/>
</g>
</svg>
