<?xml version="1.0" encoding="utf-8"?>
<!-- Generator: Adobe Illustrator 20.1.0, SVG Export Plug-In . SVG Version: 6.00 Build 0)  -->
<svg version="1.1" id="Layer_1" xmlns="http://www.w3.org/2000/svg" xmlns:xlink="http://www.w3.org/1999/xlink" x="0px" y="0px"
	 viewBox="0 0 64 64" style="enable-background:new 0 0 64 64;" xml:space="preserve">
<g>
	<g>
		<path d="M45.5,52.1c0.9,0,1.9,0.1,3,0c3.9-0.3,4.5-1.4,2.9-4.8c-2.2-4.6-5.6-7.6-10.6-8.9c-2.5-0.6-4.1-2-4.8-4.5
			c-0.9-3-2.7-5.4-5.9-6.4c-2.6-0.8-4.1-2.5-4.9-5c-1.8-5.7-6.6-8.2-11.6-10.4c-0.8-0.4-1.8-0.5-1.7,0.8c0.6,5.9,0,12.2,5.6,16.5
			c1.5,1.1,2.2,2.6,2.6,4.4c1.1,5.2,4.4,8.3,9.6,9.5c2.4,0.6,4.6,1.6,5.6,3.8C37.1,51.6,40.7,52.6,45.5,52.1z"/>
	</g>
</g>
</svg>
