<?xml version="1.0" encoding="UTF-8"?><svg id="Layer_1" xmlns="http://www.w3.org/2000/svg" viewBox="0 0 64 64"><defs><style>.cls-1{stroke-width:0px;}</style></defs><path class="cls-1" d="m11.71,51.15v-6.84h2.49c.55,0,1.03.09,1.43.28.4.19.71.46.92.81.22.35.32.76.32,1.24,0,.73-.24,1.31-.71,1.72s-1.13.62-1.96.62h-.77v2.16h-1.73Zm2.22-5.52h-.5v2.02h.5c.79,0,1.19-.34,1.19-1.02s-.4-1.01-1.19-1.01Z"/><path class="cls-1" d="m17.86,51.15v-6.84h4.76v1.38h-3.1v1.31h2.73v1.38h-2.73v1.4h3.22v1.38h-4.89Z"/><path class="cls-1" d="m23.53,51.15l2.68-6.84h1.88l2.68,6.84h-1.91l-.53-1.59h-2.48l-.53,1.59h-1.79Zm2.77-2.95h1.58l-.79-2.4-.79,2.4Z"/><path class="cls-1" d="m31.67,51.15v-6.84h1.56l3.11,4.18v-4.18h1.66v6.84h-1.56l-3.11-4.18v4.18h-1.66Z"/><path class="cls-1" d="m42.53,51.29c-1.01,0-1.79-.27-2.33-.8s-.82-1.3-.82-2.3v-3.88h1.83v3.75c0,1.09.44,1.64,1.32,1.64s1.32-.55,1.32-1.64v-3.75h1.83v3.88c0,1-.27,1.76-.81,2.3s-1.32.8-2.34.8Z"/><path class="cls-1" d="m48.76,51.15v-5.37h-2.1v-1.47h6.02v1.47h-2.1v5.37h-1.83Z"/><path class="cls-1" d="m20.36,61.07v-6.84h4.66v1.43h-2.9v1.49h2.51v1.43h-2.51v2.48h-1.76Z"/><path class="cls-1" d="m26.1,61.07v-6.84h2.49c.84,0,1.5.21,1.97.62s.71.98.71,1.71c0,.39-.09.74-.28,1.06-.19.31-.43.57-.72.78l1.67,2.67h-1.99l-1.2-2.2h-.92v2.2h-1.73Zm2.25-5.52h-.52v2h.5c.79,0,1.18-.34,1.18-1.01s-.39-.99-1.16-.99Z"/><path class="cls-1" d="m32.84,61.07v-6.84h4.76v1.38h-3.1v1.31h2.73v1.38h-2.73v1.4h3.22v1.38h-4.89Z"/><path class="cls-1" d="m38.95,61.07v-6.84h4.76v1.38h-3.1v1.31h2.73v1.38h-2.73v1.4h3.22v1.38h-4.89Z"/><path class="cls-1" d="m32,1.69c8.99,0,16.31,7.32,16.31,16.31s-7.32,16.31-16.31,16.31-16.31-7.32-16.31-16.31S23.01,1.69,32,1.69m0-1.69C22.06,0,14,8.06,14,18s8.06,18,18,18,18-8.06,18-18S41.94,0,32,0h0Z"/><polygon class="cls-1" points="43.68 31.5 19.05 6.79 20.32 5.62 44.95 30.34 43.68 31.5"/><path class="cls-1" d="m35.34,5.75c-3.52-.22-6.17,1.74-6.6,5.2-.33,2.69-1.16,5.11-2.89,7.26-1.03,1.28-1.67,2.78-1.99,4.4-.84,4.22,2.56,8.22,7.14,8.2,1.01.06,2.08-.23,3.09-.79,2.94-1.65,4.67-5.1,4.16-8.44-.31-1.99-.14-3.92.59-5.81.5-1.29.89-2.61,1.3-3.93.78-2.52-1.77-5.9-4.8-6.08Zm-1.6,17.52c.03.57-.24,1.24-.71,1.75-.35.38-.75.6-1.12.61-.02,0-.03,0-.05,0-1.04,0-1.15-.93-1.19-1.24v-.03c-.01-.62.28-1.31.76-1.79.35-.35.75-.54,1.13-.54h.01c.5,0,1.12.23,1.17,1.24Zm-3.34-4.93c.33-.31.7-.47,1.02-.46.51.02,1.13.26,1.16,1.3h0c-.02.69-.35,1.43-.86,1.91-.31.29-.64.44-.95.44-.01,0-.03,0-.04,0-.53-.02-1.16-.28-1.15-1.41,0-.61.33-1.31.82-1.78Zm-.06,4.95c0,.6-.33,1.31-.85,1.8-.34.33-.71.51-1.05.51-.01,0-.02,0-.04,0-.49-.02-1.09-.26-1.15-1.29-.03-.59.23-1.27.7-1.77.35-.38.75-.6,1.13-.61.32,0,.63.1.85.32.26.25.4.62.4,1.03Zm-2.99-4.99c.36-.33.76-.5,1.12-.47.98.08,1.06.95,1.09,1.24v.02c0,.68-.32,1.43-.82,1.91-.32.31-.68.47-1.02.47-.02,0-.03,0-.05,0-.44-.02-1.18-.23-1.18-1.39,0-.61.34-1.31.86-1.78Zm-1.65,7.43s-.07,0-.1,0c-.95,0-1.11-.84-1.22-1.4-.02-.11-.04-.21-.07-.31v-.05s.04-.28.04-.28c.13-.71.31-1.68,1.43-1.74.37-.02.68.08.9.3.4.38.45,1.03.45,1.48,0,1.59-.78,1.97-1.43,2.01Zm2.28,3.69s-.02,0-.03,0c-.35,0-.72-.18-1.05-.5-.5-.49-.81-1.21-.8-1.88h0c.06-1.06.69-1.26,1.24-1.24.88.03,1.81,1.18,1.81,2.23,0,1.11-.64,1.36-1.17,1.38Zm2.72.66s-.04,0-.06,0c-.28,0-.53-.1-.73-.29-.27-.25-.42-.64-.42-1.09h0c0-.61.29-1.32.77-1.8.34-.34.73-.53,1.09-.53h0c.53,0,1.17.24,1.21,1.35.03,1.04-.98,2.31-1.86,2.35Zm4.62-2.82c-.34.33-.74.51-1.12.51-.02,0-.03,0-.05,0-.48-.02-1.06-.24-1.13-1.16v-.02c-.01-.65.29-1.37.79-1.88.34-.35.72-.54,1.08-.54h.02c.75,0,1.14.46,1.16,1.35,0,.61-.28,1.28-.75,1.73Z"/></svg>