<?xml version="1.0" encoding="utf-8"?>
<!-- Generator: Adobe Illustrator 20.1.0, SVG Export Plug-In . SVG Version: 6.00 Build 0)  -->
<svg version="1.1" id="Layer_1" xmlns="http://www.w3.org/2000/svg" xmlns:xlink="http://www.w3.org/1999/xlink" x="0px" y="0px"
	 viewBox="0 0 64 64" style="enable-background:new 0 0 64 64;" xml:space="preserve">
<g>
	<g>
		<path d="M36.2,37c0-2.9-0.3-9.5-0.4-12.4c-0.1-1.5-0.3-5.2-0.3-5.2s0.8-1.6,0.5-1.8c-0.3-0.3-2.2,0.3-2.2,0.3s-10.4-0.7-13.7-0.7
			c-2.3,0-8.8,0.7-8.8,0.7S9.8,17,9.5,17.2c-0.2,0.2,0.4,1.9,0.4,1.9s0.5,3.5,0.5,4.8c0,3.1-1,10.7-1,14.3c0,2.1,0.5,8.2,0.5,8.2
			s-0.7,1.7-0.5,1.9c0.3,0.3,2-0.3,2-0.3s13.7,0.6,18.2,0.6c1,0,3.7-0.6,3.7-0.6s2.4,1,2.8,0.5c0.4-0.4-0.6-2.7-0.6-2.7
			S36.2,39.2,36.2,37z M32.2,36.7c-0.4,0.4-2.2,0-2.2,0H16.1c0,0-1.7,0.4-2.1,0c-0.3-0.3,0-2,0-2v-4c0,0-0.6-2.9,0-3.6
			c0.3-0.3,1.7,0,1.7,0h14.6c0,0,1.5-0.3,1.8,0c0.3,0.3,0,1.5,0,1.5v6C32.2,34.6,32.5,36.3,32.2,36.7z"/>
		<g>
			<g>
				<path d="M46.6,41.5c0.3-0.4,0.4-0.9,0.9-1.1c0.2-0.1,0.2-0.2,0.1-0.4c-0.8-1.2-1.8-2.2-3.1-2.9c-0.6-0.3-1-0.3-1.5,0
					c-0.1,0.1-0.3,0.2-0.5,0.2c0-0.3,0.1-0.5,0.3-0.6c0.4-0.4,0.1-0.5-0.2-0.6C41.7,35.7,40.9,36,40,36c-0.2,0-0.3,0.1-0.5,0
					c-0.1-0.3,0.3-0.3,0.3-0.6c-0.5-0.1-1.1-0.1-1.6-0.2c1-0.4,2-0.1,3-0.2c-0.9-0.5-1.9-0.7-2.8-1.2c0.9-0.3,1.8,0,2.7,0.1
					c-0.1-0.3-0.4-0.5-0.5-0.9c0.8,0.2,1.4,0.8,2.1,1.2c-0.1-0.6,0.3-0.9,0.6-1.3c0.2-0.3,0.5-0.3,0.8-0.1c0.3,0.1,0.4,0.3,0,0.5
					c-0.1,0.1,0.1,0.2,0.1,0.3c0.2,0.3,0.4,0.5,0.6,0.8c0.4,0.8,1,1,1.8,1c-0.3-0.4-0.7-0.6-1-0.9c-0.1-0.1-0.3-0.2-0.2-0.4
					c0.1-0.2,0.3-0.1,0.4-0.1c0.1,0,0.3,0.1,0.4,0.1c0.9,0.3,1.4-0.2,1.4-1.1c0-0.3-0.2-0.5,0.2-0.7c0.2-0.1-0.7-2.7-0.5-3.2
					c0.2-0.4-0.1-0.9-0.4-1.2c-0.2-0.3-0.3-0.6-0.2-1c0-0.1,0.1-0.2,0-0.3c-0.4-0.6-1.6-0.7-2-0.2c-0.3,0.5-0.8,0.4-1.3,0.4
					c-0.9,0-1.7-1.2-1.4-2c0.1-0.3,0.3-0.3,0.5-0.2c0.2,0.1,0.4,0.2,0.7,0.3c0-0.4-0.1-0.6-0.2-0.8c-0.2-0.5-0.1-0.8,0.3-1.1
					c0.2-0.1,0.3-0.2,0.2-0.4c-0.2-0.3-0.3-0.5-0.3-0.9c0-0.2-0.2-0.2-0.3-0.1c-1.2,0.7-2.4,0.2-2.7-1.2c0-0.1-0.1-0.3-0.2-0.4
					c-0.2-0.2-0.2-0.4,0.1-0.6c0.4-0.2,0.4-0.4,0-0.6c-0.1,0-0.2-0.1-0.2-0.3c0.2-0.6-0.3-0.6-0.6-0.7c-0.2,0-0.5-0.1-0.6-0.2
					c-0.3-0.2-0.6-0.5-0.5-0.8c0-0.4,0.5-0.3,0.8-0.5c-0.4-0.2-0.8-0.4-1.2-0.7c-0.3-0.2-1-0.5-0.4-1.1c0.1-0.1,0-0.2,0-0.2
					c-0.4-0.3-0.4-0.8-0.5-1.2c0-0.1-0.1-0.3-0.2-0.3c-0.6-0.1-0.8-0.6-1.4-0.8c-0.3-0.1-0.6-0.3-0.7-0.7c-0.1-0.3-0.3-0.6-0.6-0.8
					c-0.8-0.8-1.7-1.6-2.7-2c-0.5-0.2-0.9-0.5-1.4-0.8c-0.4-0.2-0.6-0.5-0.7-0.9c-0.2-0.6,0-0.9,0.6-1c1.1-0.2,2.3-0.1,3.3,0.5
					c0.3,0.2,0.7,0.1,1,0.1c1.1,0,2.1,0.5,3.2,0.5c1,0.1,2.1,0.4,3,0.9c0.3,0.2,0.5,0.5,0.6,0.9c0,0.1,0,0.3,0.2,0.4
					c0,0,0.1,0,0.1-0.1c0.1-0.2-0.2-0.6,0.2-0.6C41.6,8.7,42,8.6,42.3,9c0.2,0.3,0.4,0.6,0.9,0.6c0.5,0,0.7,0.6,0.8,1
					c0.1,0.3,0.1,0.6,0.6,0.2c0.3-0.3,0.8,0.1,0.9,0.7c0.2-0.1,0.3-0.5,0.6-0.3c0.4,0.2,0.7,0.6,0.6,1.1c-0.1,0.6,0.1,1.1,0.4,1.6
					c0.1,0.2,0.1,0.3,0.4,0.1c0.2-0.1,0.3-0.6,0.6-0.3c0.2,0.3,0.6,0.6,0.5,1c-0.1,0.2-0.1,0.5-0.1,0.7c0.1,0.1,0.2,0,0.3-0.1
					c0.3-0.1,0.6-0.5,0.9-0.1c0.2,0.3,0.4,0.8,0,1.2c-0.3,0.4-0.4,0.5,0.1,0.8c0.7,0.5,1.2,1.3,1,2.3c-0.1,0.6,0.5,1.5,0.5,1.5
					c0.1,0.6,0.7,0.7,1,1.1c0.2,0.2,0,0.6-0.2,0.9c-0.2,0.2-0.3,0.5-0.3,0.8c0,0.5-0.2,0.9-0.6,1.2c-0.4,0.3-0.5,0.6,0,0.9
					c0.3,0.2,0.2,0.6,0.6,0.8c0.3,0.1,0.6,0.2,0.9,0.4c-0.2,0.3-0.5,0.3-0.7,0.1c-0.4-0.4-0.8-0.4-1.1,0c-0.5,0.5-1.1,0.4-1.6,0.2
					c-0.7-0.2-0.5,0.5-0.7,0.7c-0.2,0.3,0.1,1.7,0.3,1.9c0.5,0.4,0.1,2.3,0.6,2.7c0.5,0.4,0.6,1,0.6,1.6c0.1,0.8,0.4,1.6,0.9,2.3
					c0.2,0,0.2-0.2,0.2-0.4c0.2-1.4,0.6-2.8,1.2-4.1c0.1-0.1,0.1-0.3,0.1-0.4c-0.1-0.4,0-0.6,0.5-0.7c0.3,0,0.3-0.3,0.4-0.6
					c0-0.3,0.1-0.5,0.5-0.4c0.3,0,0.5-0.2,0.6-0.5c0.1-0.6,0.5-0.9,1.1-1c0.2,0,0.5-0.1,0.8-0.2c0,0.2,0,0.4,0.2,0.6
					c0.1,0.1-0.6,0.5-0.8,0.7c-0.2,0.4-0.3,0.8-0.4,1.2c-0.1,0.2-0.5,0.9-0.7,1.2c-0.2,0.4-0.4,0.6-0.7,0.9c-0.6,0.6-1.1,1.2-1,2.1
					c0,0.3-0.1,0.5-0.2,0.7c-0.1,0.2-0.3,0.4-0.5,0.6c-0.1,0.2-0.4,0.4-0.2,0.6c0.1,0.2,0.4,0,0.6-0.1c1.2-0.5,2.4-0.9,3.7-1.1
					c0.3,0,0.6-0.2,0.9-0.3c1.3-0.6,2.7-0.7,4.1-0.8c0.1,0,0.3,0,0.4,0.1c-1.8,0.9-3.5,1.8-5.6,2c-1.2,0.1-2.4,0.1-3.6,0.6
					c-0.2,0.1-0.4,0.1-0.5,0.3c1.2,0,2.3-0.2,3.5,0.3C55.3,38.1,55.1,38,55,38c-0.8-0.2-1.7,0-2.5,0.2c-0.1,0-0.2,0.1-0.2,0.2
					c0,0.2,0.2,0.1,0.3,0.1c1.4-0.5,2.7-0.1,4,0.1c0.5,0.1,0.9,0,1.4-0.2c0.7-0.3,1.4-0.4,2.2,0c-0.6,0.1-1.1,0.3-1.7,0.4
					c-0.4,0.1-0.1,0.2-0.1,0.4c-0.5,0.1-0.9,0-1.3,0.2c0.1,0.3,0.5,0.1,0.6,0.4c-1.1,0.1-2.1,0.2-3.3,0.3c0.5,0.3,0.9,0.6,1.3,1.1
					c-0.9-0.4-1.6-0.7-2.4-0.8c-0.2,0-0.4-0.1-0.6-0.1c-0.9-0.1-1,0-1.2,0.9c0,0.3-0.1,0.6-0.2,0.9c-0.7,1.8-0.7,3.7-1.2,5.6
					c-0.4,1.4-0.8,2.8-1.2,4.3c-0.3,0.9-0.6,1.9-0.9,2.8c-0.1,0.4-1.1,0.7-1.4,0.5c-0.2-0.1-0.1-0.3,0-0.4c0.3-0.9,0.5-1.8,0.8-2.7
					c0.7-1.8,0.6-3.6,0.4-5.5c-0.2-1.6-0.3-3.3-0.1-4.9c0-0.3,0-0.5-0.4-0.4C47,41.4,46.8,41.4,46.6,41.5z M48.5,48.3
					c0.3-0.2,0.3-0.4,0.4-0.6c0.6-2.1,0.5-4.2,0.1-6.4c0-0.1,0-0.3-0.2-0.4c-0.2,0-0.3,0.1-0.4,0.2c-0.1,0.1-0.1,0.3-0.2,0.5
					c-0.2,1.3-0.1,2.7,0,4C48.3,46.5,48.4,47.3,48.5,48.3z M50.9,41.9c0.2-0.3,0.3-0.7,0.3-1.1c0-0.2,0.2-0.5-0.2-0.4
					c-0.3,0.1-0.8-0.2-0.8,0.5C50.2,41.4,50.6,41.6,50.9,41.9z"/>
			</g>
		</g>
	</g>
</g>
<path d="M32,3c16,0,29,13,29,29S48,61,32,61S3,48,3,32S16,3,32,3 M32,0C14.3,0,0,14.3,0,32s14.3,32,32,32s32-14.3,32-32S49.7,0,32,0
	L32,0z"/>
</svg>
