<?xml version="1.0" encoding="UTF-8"?><svg id="Layer_1" xmlns="http://www.w3.org/2000/svg" viewBox="0 0 64 64"><defs><style>.cls-1{stroke-width:0px;}</style></defs><path class="cls-1" d="m8.27,51.15v-6.84h1.93l1.84,3.82,1.84-3.82h1.88v6.84h-1.67v-4.28l-1.36,2.81h-1.4l-1.37-2.83v4.29h-1.67Z"/><path class="cls-1" d="m20.57,51.29c-.54,0-1.04-.09-1.49-.26-.45-.17-.84-.42-1.17-.74-.33-.32-.59-.69-.77-1.13-.18-.44-.27-.91-.27-1.44s.09-.97.28-1.41c.19-.44.45-.81.78-1.13.34-.32.73-.57,1.18-.75.45-.18.94-.27,1.47-.27s1.04.09,1.49.26c.45.17.84.42,1.17.74.33.32.59.7.77,1.13.18.44.27.91.27,1.44s-.09.97-.28,1.41c-.19.44-.45.81-.78,1.13-.34.32-.73.57-1.18.75-.45.18-.94.27-1.47.27Zm0-1.59c.35,0,.67-.08.94-.25s.49-.4.65-.7c.16-.3.23-.63.23-1.01s-.08-.72-.23-1.02c-.16-.3-.37-.53-.64-.7-.27-.17-.59-.26-.95-.26s-.67.08-.94.25c-.28.17-.49.4-.65.69-.16.29-.23.63-.23,1.02s.08.72.23,1.02c.16.3.37.53.65.7.28.17.59.26.94.26Z"/><path class="cls-1" d="m25.38,51.15v-6.84h1.83v5.37h2.9v1.47h-4.73Z"/><path class="cls-1" d="m31.13,51.15v-6.84h1.83v5.37h2.9v1.47h-4.73Z"/><path class="cls-1" d="m39.79,51.29c-1.01,0-1.79-.27-2.33-.8s-.82-1.3-.82-2.3v-3.88h1.83v3.75c0,1.09.44,1.64,1.32,1.64s1.32-.55,1.32-1.64v-3.75h1.83v3.88c0,1-.27,1.76-.81,2.3s-1.32.8-2.34.8Z"/><path class="cls-1" d="m46.43,51.29c-.31,0-.61-.03-.92-.08s-.59-.12-.85-.21c-.26-.09-.48-.19-.64-.3l.16-1.46c.29.18.63.33,1.03.44.4.11.78.17,1.15.17.34,0,.59-.06.77-.17.18-.11.27-.27.27-.48,0-.13-.03-.23-.1-.32s-.19-.17-.36-.24c-.17-.07-.4-.16-.71-.25-.74-.2-1.27-.47-1.59-.81-.32-.33-.49-.77-.49-1.32,0-.65.23-1.17.7-1.54.46-.38,1.1-.56,1.9-.56.39,0,.78.05,1.17.14.39.1.71.22.97.39l-.23,1.41c-.24-.16-.53-.28-.87-.37-.34-.09-.66-.13-.96-.13-.62,0-.94.2-.94.6,0,.17.07.31.22.41.14.1.41.21.8.32.82.23,1.4.52,1.75.85s.53.77.53,1.32c0,.69-.24,1.23-.72,1.61-.48.38-1.16.57-2.03.57Z"/><path class="cls-1" d="m53.71,51.25c-.76,0-1.42-.14-1.98-.43s-.98-.69-1.28-1.21c-.3-.52-.45-1.14-.45-1.86,0-.52.09-1,.27-1.43s.44-.81.77-1.12c.33-.32.73-.56,1.19-.73s.96-.26,1.52-.26c.39,0,.78.05,1.17.14.39.1.72.22.99.39l-.29,1.5c-.28-.14-.58-.25-.88-.32-.31-.08-.6-.12-.88-.12-.61,0-1.1.17-1.45.53-.36.35-.54.82-.54,1.41s.18,1.05.54,1.4c.36.35.84.52,1.46.52.29,0,.61-.05.95-.15s.67-.23.95-.39l.19,1.58c-.28.17-.62.3-1.04.41-.41.1-.83.15-1.23.15Z"/><path class="cls-1" d="m20.36,61.07v-6.84h4.66v1.43h-2.9v1.49h2.51v1.43h-2.51v2.48h-1.76Z"/><path class="cls-1" d="m26.1,61.07v-6.84h2.49c.84,0,1.5.21,1.97.62s.71.98.71,1.71c0,.39-.09.74-.28,1.06-.19.31-.43.57-.72.78l1.67,2.67h-1.99l-1.2-2.2h-.92v2.2h-1.73Zm2.25-5.52h-.52v2h.5c.79,0,1.18-.34,1.18-1.01s-.39-.99-1.16-.99Z"/><path class="cls-1" d="m32.84,61.07v-6.84h4.76v1.38h-3.1v1.31h2.73v1.38h-2.73v1.4h3.22v1.38h-4.89Z"/><path class="cls-1" d="m38.95,61.07v-6.84h4.76v1.38h-3.1v1.31h2.73v1.38h-2.73v1.4h3.22v1.38h-4.89Z"/><path class="cls-1" d="m32,1.69c8.99,0,16.31,7.32,16.31,16.31s-7.32,16.31-16.31,16.31-16.31-7.32-16.31-16.31S23.01,1.69,32,1.69m0-1.69C22.06,0,14,8.06,14,18s8.06,18,18,18,18-8.06,18-18S41.94,0,32,0h0Z"/><polygon class="cls-1" points="43.68 31.5 19.05 6.79 20.32 5.62 44.95 30.34 43.68 31.5"/><path class="cls-1" d="m42.62,16.95c-.97-5.4-5.97-9.29-11.98-9.3-2.54-.09-4.92.74-6.97,2.46-1.17.98-1.9,2.2-2.12,3.73-.27,1.93.13,3.74.71,5.55.19.6.28,1.13-.24,1.67-1.11,1.14-1.06,1.58.23,2.51.41.29.85.55,1.31.76,1.04.46,2.01.98,2.66,1.96.33.5.9.59,1.46.56.76-.05,1.32.24,1.8.8.38.43.8.83,1.22,1.22,1.22,1.12,2.02.98,2.6-.53.32-.85.84-1.26,1.73-1.36.47-.05.92-.22,1.38-.32,5.3-1.14,6.87-5.95,6.19-9.7Zm-17.78,5.41c-.42-4.4,0-8.71,1.67-12.88-.99,4.24-1.36,8.55-1.67,12.88Zm1.18-.09c-.27-5.22,2.27-9.48,5.1-13.64-2.19,4.38-4.79,8.62-5.1,13.64Zm8.19-11.66c-2.66,4.29-5.27,8.61-7.57,13.09,1.68-4.79,4.36-9.07,7.57-13.09Zm-7.04,14.37c3.59-4.01,7.38-7.87,10.68-12.13-2.78,4.64-6.63,8.46-10.68,12.13Zm1.1.79c4.27-2.62,8.79-4.9,12.32-8.48-3.16,4.06-7.67,6.36-12.32,8.48Zm1.85.5c4.07-1.15,7.89-2.8,11.38-5.09-3.22,2.83-7.02,4.5-11.38,5.09Z"/></svg>