<?xml version="1.0" encoding="UTF-8"?><svg id="Layer_1" xmlns="http://www.w3.org/2000/svg" viewBox="0 0 64 64"><defs><style>.cls-1{stroke-width:0px;}</style></defs><path class="cls-1" d="m7.62,51.15v-6.84h1.93l1.84,3.82,1.84-3.82h1.88v6.84h-1.67v-4.28l-1.36,2.81h-1.4l-1.37-2.83v4.29h-1.67Z"/><path class="cls-1" d="m19.63,51.29c-1.01,0-1.79-.27-2.33-.8s-.82-1.3-.82-2.3v-3.88h1.83v3.75c0,1.09.44,1.64,1.32,1.64s1.32-.55,1.32-1.64v-3.75h1.83v3.88c0,1-.27,1.76-.81,2.3s-1.32.8-2.34.8Z"/><path class="cls-1" d="m26.27,51.29c-.31,0-.61-.03-.92-.08s-.59-.12-.85-.21c-.26-.09-.48-.19-.64-.3l.16-1.46c.29.18.63.33,1.03.44.4.11.78.17,1.15.17.34,0,.59-.06.77-.17.18-.11.27-.27.27-.48,0-.13-.03-.23-.1-.32s-.19-.17-.36-.24c-.17-.07-.4-.16-.71-.25-.74-.2-1.27-.47-1.59-.81-.32-.33-.49-.77-.49-1.32,0-.65.23-1.17.7-1.54.46-.38,1.1-.56,1.9-.56.39,0,.78.05,1.17.14.39.1.71.22.97.39l-.23,1.41c-.24-.16-.53-.28-.87-.37-.34-.09-.66-.13-.96-.13-.62,0-.94.2-.94.6,0,.17.07.31.22.41.14.1.41.21.8.32.82.23,1.4.52,1.75.85s.53.77.53,1.32c0,.69-.24,1.23-.72,1.61-.48.38-1.16.57-2.03.57Z"/><path class="cls-1" d="m31.64,51.15v-5.37h-2.1v-1.47h6.02v1.47h-2.1v5.37h-1.83Z"/><path class="cls-1" d="m35.19,51.15l2.68-6.84h1.88l2.68,6.84h-1.91l-.53-1.59h-2.48l-.53,1.59h-1.79Zm2.77-2.95h1.58l-.79-2.4-.79,2.4Z"/><path class="cls-1" d="m43.34,51.15v-6.84h2.49c.84,0,1.5.21,1.97.62s.71.98.71,1.71c0,.39-.09.74-.28,1.06-.19.31-.43.57-.72.78l1.67,2.67h-1.99l-1.2-2.2h-.92v2.2h-1.73Zm2.25-5.52h-.52v2h.5c.79,0,1.18-.34,1.18-1.01s-.39-.99-1.16-.99Z"/><path class="cls-1" d="m50.08,51.15v-6.84h2.74c1.25,0,2.21.3,2.88.89s1,1.44,1,2.53c0,.72-.15,1.33-.46,1.84s-.76.9-1.34,1.17c-.58.27-1.29.41-2.12.41h-2.69Zm2.63-5.41h-.83v3.98h.83c1.41,0,2.12-.66,2.12-1.99s-.71-1.99-2.12-1.99Z"/><path class="cls-1" d="m20.36,61.07v-6.84h4.66v1.43h-2.9v1.49h2.51v1.43h-2.51v2.48h-1.76Z"/><path class="cls-1" d="m26.1,61.07v-6.84h2.49c.84,0,1.5.21,1.97.62s.71.98.71,1.71c0,.39-.09.74-.28,1.06-.19.31-.43.57-.72.78l1.67,2.67h-1.99l-1.2-2.2h-.92v2.2h-1.73Zm2.25-5.52h-.52v2h.5c.79,0,1.18-.34,1.18-1.01s-.39-.99-1.16-.99Z"/><path class="cls-1" d="m32.84,61.07v-6.84h4.76v1.38h-3.1v1.31h2.73v1.38h-2.73v1.4h3.22v1.38h-4.89Z"/><path class="cls-1" d="m38.95,61.07v-6.84h4.76v1.38h-3.1v1.31h2.73v1.38h-2.73v1.4h3.22v1.38h-4.89Z"/><path class="cls-1" d="m32,1.69c8.99,0,16.31,7.32,16.31,16.31s-7.32,16.31-16.31,16.31-16.31-7.32-16.31-16.31S23.01,1.69,32,1.69m0-1.69C22.06,0,14,8.06,14,18s8.06,18,18,18,18-8.06,18-18S41.94,0,32,0h0Z"/><polygon class="cls-1" points="43.68 31.5 19.05 6.79 20.32 5.62 44.95 30.34 43.68 31.5"/><path class="cls-1" d="m37.88,18.32c0-.45-.05-.91-.08-1.36,0-.16-.04-.32-.05-.48-.02-.2-.05-.41-.07-.61-.02-.24-.08-.47-.15-.69-.14-.42-.33-.82-.55-1.21-.32-.59-.7-1.14-1.09-1.69-.29-.4-.59-.79-.9-1.17-.01-.02-.03-.04-.04-.06-.02-.02-.01-.04.01-.06.01,0,.02-.01.03-.02.04-.02.05-.06.05-.1-.01-.15,0-.3-.01-.46,0-.03,0-.06,0-.09,0-.04-.01-.07,0-.11,0-.03,0-.05,0-.08,0-.37,0-.75.02-1.12,0-.17,0-.34,0-.51,0-.11,0-.23,0-.34,0-.05,0-.1.02-.16.02-.04.01-.08,0-.12-.02-.04-.05-.07-.08-.1-.04-.03-.09-.06-.14-.09-.11-.06-.23-.1-.35-.13-.22-.06-.44-.11-.67-.14-.12-.02-.23-.03-.35-.05-.06,0-.1-.04-.11-.1,0-.02,0-.03-.01-.05-.26-1.29-.53-2.59-.79-3.88-.03-.16-.07-.32-.1-.49-.01-.05-.03-.09-.08-.12-.26-.16-.5-.16-.76,0-.04.02-.06.06-.07.1,0,.03-.01.06-.02.1-.08.38-.15.75-.23,1.13-.21,1.05-.43,2.11-.64,3.16,0,.03-.01.05-.02.08,0,.04-.03.06-.07.06-.04,0-.09.01-.13.02-.3.04-.59.09-.88.16-.16.04-.31.09-.45.17-.05.03-.1.06-.14.11-.05.05-.07.11-.06.18.01.05.01.1.01.15,0,.3,0,.6,0,.9,0,.35,0,.7,0,1.05,0,.04,0,.08,0,.12.02.05.01.1.01.15,0,.16,0,.33,0,.49,0,.06,0,.11-.04.16-.07.1-.14.21-.21.32-.28.4-.55.79-.83,1.19-.24.35-.47.69-.7,1.05-.28.44-.54.88-.76,1.35-.13.28-.23.57-.27.88-.02.22-.05.45-.06.67-.02.28-.03.56-.04.84-.01.3,0,.6-.02.9,0,.16,0,.31,0,.47,0,.69,0,1.39.01,2.08.02.46,0,.93.02,1.39.02.33,0,.66.02.98.02.27,0,.55.02.83.02.27,0,.54.02.81.01.22,0,.44.02.66.01.23,0,.47.02.71.01.19,0,.38.02.57.01.23.01.47.02.71,0,.15,0,.3.02.46.01.22,0,.44.02.66,0,.14,0,.28.02.42.01.24.02.48.03.72,0,.15.02.3.04.45.08.45.25.85.53,1.21.04.05.09.1.15.13.14.07.28.13.42.19.69.27,1.41.45,2.15.56.26.04.51.07.77.09.13.01.27.03.4.03.1,0,.21.31.31.31.02,0,.04-.26.06.31h.85c.04-.56.08-.31.12-.31.23,0,.47-.16.7-.17.25-.02.51-.1.76-.12.37-.03.74-.11,1.11-.18.33-.06.65-.15.97-.25.35-.11.69-.25,1-.43.13-.07.25-.16.37-.24.04-.02.07-.06.09-.09.27-.37.44-.78.5-1.24.02-.15.02-.3.03-.46.01-.34.01-.68.03-1.02.01-.23,0-.46.02-.69.02-.27,0-.54.02-.81.01-.26,0-.52.02-.78.02-.31,0-.62.02-.93.02-.32,0-.64.02-.95.03-.7.12-1.39.13-2.09,0-.04.12-.08.12-.12v-3.64s-.12-.08-.12-.12Zm-2.15,7.91s-3.36.27-4.55.27c-1.04,0-3.97-.27-3.97-.27v-8.74s2.92.36,3.97.36c1.17,0,4.55-.36,4.55-.36v8.74Z"/></svg>