<?xml version="1.0" encoding="UTF-8"?><svg id="Layer_1" xmlns="http://www.w3.org/2000/svg" viewBox="0 0 64 64"><defs><style>.cls-1{stroke-width:0px;}</style></defs><path class="cls-1" d="m17.24,51.25c-.76,0-1.42-.14-1.98-.43-.55-.29-.98-.69-1.28-1.21-.3-.52-.45-1.14-.45-1.86,0-.52.09-1,.27-1.43.18-.43.44-.81.77-1.12.33-.32.73-.56,1.19-.73s.96-.26,1.52-.26c.39,0,.78.05,1.17.14s.72.22.99.39l-.29,1.5c-.28-.14-.58-.25-.88-.32-.31-.08-.6-.12-.88-.12-.61,0-1.1.17-1.45.53-.36.35-.54.82-.54,1.41s.18,1.05.54,1.4c.36.35.84.52,1.46.52.29,0,.61-.05.95-.15.35-.1.67-.23.95-.39l.19,1.58c-.28.17-.62.3-1.04.41-.41.1-.83.15-1.23.15Z"/><path class="cls-1" d="m20.68,51.15v-6.84h4.76v1.38h-3.1v1.31h2.73v1.38h-2.73v1.4h3.22v1.38h-4.89Z"/><path class="cls-1" d="m26.79,51.15v-6.84h1.83v5.37h2.9v1.47h-4.73Z"/><path class="cls-1" d="m32.54,51.15v-6.84h4.76v1.38h-3.1v1.31h2.73v1.38h-2.73v1.4h3.22v1.38h-4.89Z"/><path class="cls-1" d="m38.65,51.15v-6.84h2.49c.84,0,1.5.21,1.97.62.47.41.71.98.71,1.71,0,.39-.09.74-.28,1.06-.19.31-.43.57-.72.78l1.67,2.67h-1.99l-1.2-2.2h-.92v2.2h-1.73Zm2.25-5.52h-.52v2h.5c.79,0,1.18-.34,1.18-1.01s-.39-.99-1.16-.99Z"/><path class="cls-1" d="m46.53,51.15v-2.78l-2.47-4.06h2.01l1.39,2.72,1.39-2.72h1.95l-2.47,4.06v2.78h-1.79Z"/><path class="cls-1" d="m20.36,61.07v-6.84h4.66v1.43h-2.9v1.49h2.51v1.43h-2.51v2.48h-1.76Z"/><path class="cls-1" d="m26.1,61.07v-6.84h2.49c.84,0,1.5.21,1.97.62.47.41.71.98.71,1.71,0,.39-.09.74-.28,1.06-.19.31-.43.57-.72.78l1.67,2.67h-1.99l-1.2-2.2h-.92v2.2h-1.73Zm2.25-5.52h-.52v2h.5c.79,0,1.18-.34,1.18-1.01s-.39-.99-1.16-.99Z"/><path class="cls-1" d="m32.84,61.07v-6.84h4.76v1.38h-3.1v1.31h2.73v1.38h-2.73v1.4h3.22v1.38h-4.89Z"/><path class="cls-1" d="m38.95,61.07v-6.84h4.76v1.38h-3.1v1.31h2.73v1.38h-2.73v1.4h3.22v1.38h-4.89Z"/><path class="cls-1" d="m32,1.69c8.99,0,16.31,7.32,16.31,16.31s-7.32,16.31-16.31,16.31-16.31-7.32-16.31-16.31S23.01,1.69,32,1.69m0-1.69C22.06,0,14,8.06,14,18s8.06,18,18,18,18-8.06,18-18S41.94,0,32,0h0Z"/><polygon class="cls-1" points="43.68 31.5 19.05 6.79 20.32 5.62 44.95 30.34 43.68 31.5"/><path class="cls-1" d="m20.64,28.27c.34.39.73.71,1.18.97.89.52,1.68.51,2.46-.13.83-.69,1.76-1.26,2.57-1.97,2.69-2.38,5.23-4.91,7.61-7.57,1.27-1.41,2.87-2.35,4.38-3.44.12-.09.25-.18.38-.27.84-.6,1.09-.59,1.87.08.21.18.42.11.7.06.43-.07.7-.44,1.14-.41q-.25-.38-2.31-.78c.43-.28.79-.33,1.44-.19.71.15,1.07-.16,1.4-.76.25-.46.24-.95.45-1.4.15-.31-.11-.26-.26-.24-.32.04-.58-.04-.76-.31-.05.04-.09.1-.15.04-.07-.06,0-.11.03-.15.19-.43.18-.85-.03-1.27-.1-.2-.06-.44.06-.58.36-.42.36-.93.41-1.42.01-.1,0-.2-.09-.18-.43.09-.76-.33-1.22-.19-.27.08-.34-.26-.35-.47-.01-.26,0-.36-.36-.31-.59.08-1.18.04-1.45.71-.09.23-.2.05-.31-.02-.13-.09-.26-.5-.43-.02-.04.1-.13.01-.21,0-.48-.06-.95.03-1.37.22-.3.14-.47.46-.35.84.12.37.16.74-.22,1.15-.02-.37-.04-.62.05-.88.04-.1.06-.28,0-.34-.16-.17-.25-.5-.48-.47-.14.01-.26.31-.37.51-.18.36-.07.54.15.82.25.31.27.68-.05,1-1.14,1.13-2.2,2.33-3.29,3.5-.78.84-1.79,1.48-2.69,2.21-2.61,2.13-5.18,4.3-7.52,6.72-.78.81-1.54,1.63-2.17,2.56-.63.92-.59,1.52.15,2.37Zm15.7-16.38s-1.03,1.54-1.27,1.94c-.73,1.22-2.79,4.49-2.79,4.49,0,0,2.03-3.72,2.89-4.87.28-.37,1.17-1.56,1.17-1.56Zm1.33-1.32c-.45.31-.66.84-1.16,1.18.11-.54.64-1.12,1.16-1.18Zm.86,1.31c-.22.25-.43.51-.65.76.05-.38.34-.58.54-.86l.11.1Zm-1.3,2.93c.09-.33,1.23-1.74,1.74-2.18.3.8-.15,1.36-1.74,2.18Zm-.04,1.12c1.01-.79,1.98-1.55,2.96-2.32.02.57-2.2,2.32-2.96,2.32Zm-15.59,10.49s6.65-4.9,9.02-6.63c1.29-.94,6.25-3.71,6.25-3.71,0,0-4.93,2.95-6.22,3.92-2.34,1.76-9.05,6.42-9.05,6.42Z"/></svg>