<?xml version="1.0" encoding="UTF-8"?><svg id="Layer_1" xmlns="http://www.w3.org/2000/svg" viewBox="0 0 64 64"><defs><style>.cls-1{stroke-width:0px;}</style></defs><path class="cls-1" d="m21.69,51.15v-6.84h1.56l3.11,4.18v-4.18h1.66v6.84h-1.56l-3.11-4.18v4.18h-1.66Z"/><path class="cls-1" d="m32.54,51.29c-1.01,0-1.79-.27-2.33-.8s-.82-1.3-.82-2.3v-3.88h1.83v3.75c0,1.09.44,1.64,1.32,1.64s1.32-.55,1.32-1.64v-3.75h1.83v3.88c0,1-.27,1.76-.81,2.3s-1.32.8-2.33.8Z"/><path class="cls-1" d="m38.78,51.15v-5.37h-2.1v-1.47h6.02v1.47h-2.1v5.37h-1.83Z"/><path class="cls-1" d="m20.36,61.07v-6.84h4.66v1.43h-2.9v1.49h2.51v1.43h-2.51v2.48h-1.76Z"/><path class="cls-1" d="m26.1,61.07v-6.84h2.49c.84,0,1.5.21,1.97.62.47.41.71.98.71,1.71,0,.39-.09.74-.28,1.06-.19.31-.43.57-.72.78l1.67,2.67h-1.99l-1.2-2.2h-.92v2.2h-1.73Zm2.25-5.52h-.52v2h.5c.79,0,1.18-.34,1.18-1.01s-.39-.99-1.16-.99Z"/><path class="cls-1" d="m32.84,61.07v-6.84h4.76v1.38h-3.1v1.31h2.73v1.38h-2.73v1.4h3.22v1.38h-4.89Z"/><path class="cls-1" d="m38.95,61.07v-6.84h4.76v1.38h-3.1v1.31h2.73v1.38h-2.73v1.4h3.22v1.38h-4.89Z"/><path class="cls-1" d="m32,1.69c8.99,0,16.31,7.32,16.31,16.31s-7.32,16.31-16.31,16.31-16.31-7.32-16.31-16.31S23.01,1.69,32,1.69m0-1.69C22.06,0,14,8.06,14,18s8.06,18,18,18,18-8.06,18-18S41.94,0,32,0h0Z"/><polygon class="cls-1" points="43.68 31.5 19.05 6.79 20.32 5.62 44.95 30.34 43.68 31.5"/><path class="cls-1" d="m37.5,20.53c-1.98-.84-3.93-1.73-5.89-2.6-2-.89-4.01-1.76-6-2.68-.77-.36-1.17-.2-1.6.53-2.57,4.38-1.98,8.46.93,12.48.79,1.08,1.34,1.4,2.89,1.36,5.41-.15,8.33-3.09,10.32-7.46.38-.84.18-1.26-.66-1.62Zm-1.45,1.27c-.04.43-.08.9-.3,1.25-1.65,2.62-4.31,3.83-7.26,4.99.16-.8.66-.99,1.02-1.29,1.64-1.38,3.13-2.86,3.99-4.84.14-.31.36-.6.6-.86.34-.37.76-.63,1.31-.42.56.21.68.68.64,1.17Z"/><path class="cls-1" d="m40.94,13.49c-.62-1.17-1.67-1.92-2.7-2.67-.83-.6-1.27-1.33-1.02-2.35.1-.42.29-.86-.31-1.11-.54-.23-.84.06-1.12.44-.6.81-1.44.96-2.39.82-1.02-.15-2.03-.34-3.06-.47-1.53-.19-2.86.24-3.85,1.41-.62.74-1.15,1.52-1.39,2.49-.43,1.76-.49,1.75,1.23,2.51,1.87.84,3.75,1.67,5.63,2.5,2,.89,4,1.78,6,2.67.04.02.08.03.12.05.9.56,1.57.24,2.21-.48,1.5-1.68,1.73-3.79.65-5.82Zm-.66,3.6s-.15.21-.28.22c-.26.03-.4-.2-.45-.41-.37-1.42-1.46-2.23-2.65-2.97-.69-.43-1.04-1.03-.51-1.76.5-.69,1.18-.44,1.8-.11,1.74.93,2.86,3.47,2.1,5.02Z"/></svg>