<?xml version="1.0" encoding="UTF-8"?><svg id="Layer_1" xmlns="http://www.w3.org/2000/svg" viewBox="0 0 64 64"><defs><style>.cls-1{stroke-width:0px;}</style></defs><path class="cls-1" d="m15.65,51.25c-.78,0-1.46-.14-2.03-.42s-1.02-.67-1.33-1.18c-.31-.51-.47-1.12-.47-1.82s.17-1.37.5-1.91c.33-.54.8-.96,1.4-1.26.6-.3,1.3-.45,2.12-.45.41,0,.82.05,1.24.14.42.09.79.22,1.12.38l-.29,1.45c-.69-.31-1.39-.46-2.1-.46-.44,0-.83.08-1.16.25s-.58.4-.76.71c-.18.3-.27.66-.27,1.08,0,.64.19,1.13.57,1.48.38.35.91.53,1.59.53.15,0,.3-.01.45-.03.15-.02.3-.05.45-.09v-1.11h-1.15v-1.32h2.79v3.51c-.38.17-.81.3-1.27.39-.46.09-.93.14-1.4.14Z"/><path class="cls-1" d="m19.58,51.15v-6.84h1.83v5.37h2.9v1.47h-4.73Z"/><path class="cls-1" d="m28.24,51.29c-1.01,0-1.79-.27-2.33-.8s-.82-1.3-.82-2.3v-3.88h1.83v3.75c0,1.09.44,1.64,1.32,1.64s1.32-.55,1.32-1.64v-3.75h1.83v3.88c0,1-.27,1.76-.81,2.3s-1.32.8-2.34.8Z"/><path class="cls-1" d="m34.48,51.15v-5.37h-2.1v-1.47h6.02v1.47h-2.1v5.37h-1.83Z"/><path class="cls-1" d="m39.43,51.15v-6.84h4.76v1.38h-3.1v1.31h2.73v1.38h-2.73v1.4h3.22v1.38h-4.89Z"/><path class="cls-1" d="m45.54,51.15v-6.84h1.56l3.11,4.18v-4.18h1.66v6.84h-1.56l-3.11-4.18v4.18h-1.66Z"/><path class="cls-1" d="m20.36,61.07v-6.84h4.66v1.43h-2.9v1.49h2.51v1.43h-2.51v2.48h-1.76Z"/><path class="cls-1" d="m26.1,61.07v-6.84h2.49c.84,0,1.5.21,1.97.62.47.41.71.98.71,1.71,0,.39-.09.74-.28,1.06-.19.31-.43.57-.72.78l1.67,2.67h-1.99l-1.2-2.2h-.92v2.2h-1.73Zm2.25-5.52h-.52v2h.5c.79,0,1.18-.34,1.18-1.01s-.39-.99-1.16-.99Z"/><path class="cls-1" d="m32.84,61.07v-6.84h4.76v1.38h-3.1v1.31h2.73v1.38h-2.73v1.4h3.22v1.38h-4.89Z"/><path class="cls-1" d="m38.95,61.07v-6.84h4.76v1.38h-3.1v1.31h2.73v1.38h-2.73v1.4h3.22v1.38h-4.89Z"/><path class="cls-1" d="m32,1.69c8.99,0,16.31,7.32,16.31,16.31s-7.32,16.31-16.31,16.31-16.31-7.32-16.31-16.31S23.01,1.69,32,1.69m0-1.69C22.06,0,14,8.06,14,18s8.06,18,18,18,18-8.06,18-18S41.94,0,32,0h0Z"/><polygon class="cls-1" points="43.68 31.5 19.05 6.79 20.32 5.62 44.95 30.34 43.68 31.5"/><path class="cls-1" d="m27.5,20.54h3.93v2.23c-.52.41-1.14.77-1.86,1.06-.72.29-1.44.44-2.16.44-1.45,0-2.63-.52-3.52-1.56-.9-1.04-1.34-2.6-1.34-4.69,0-1.93.44-3.39,1.33-4.37.88-.98,2.08-1.47,3.58-1.47.99,0,1.81.25,2.48.75.66.5,1.11,1.18,1.35,2.04l3.41-.66c-.34-1.61-1.1-2.87-2.29-3.79-1.19-.91-2.83-1.37-4.94-1.37-1.62,0-2.98.29-4.07.87-1.43.76-2.52,1.85-3.26,3.27s-1.11,3.04-1.11,4.87c0,1.68.33,3.24,1,4.67.66,1.43,1.66,2.53,2.98,3.3,1.32.77,2.87,1.16,4.65,1.16,1.4,0,2.78-.27,4.15-.82,1.36-.55,2.41-1.18,3.12-1.9v-6.99h-7.4v2.96Z"/><path class="cls-1" d="m42.03,22.88c-.49.18-.95.38-1.38.65.23-.85.41-1.7.53-2.57.23.17.56.24.94.16.41-.08.74-.28,1.04-.55,1.36-1.19,1.75-2.73,1.56-4.53-.67,1.17-1.82,1.71-2.89,2.37-.2.12-.36.27-.5.44,0-.55-.01-1.1-.06-1.66.59.34,1.11.24,1.56-.31,1.1-1.37.52-4.88-1.09-5.98.14,1.41-.49,2.57-.95,3.8-.11-.35-.23-.7-.38-1.03.27-.39.27-.96-.07-1.65-.59-1.16-1.7-1.96-2.14-3.44-.82,1.87-.6,3.47.59,5.5-.72-.14-1.06-.86-1.79-1.23,0,1.52.24,2.85,1.08,4.02.66.92,1.39,1.1,1.97.58.04.78.03,1.54-.04,2.28-.07-.19-.17-.38-.3-.57-.07-.1-.14-.2-.23-.28-.85-.72-1.76-1.39-2.65-2.37-.1,1.59.01,2.93.77,4.14.52.83,1.4,1.06,2.05.64.06-.04.12-.09.17-.14-.13.64-.4,1.5-.7,2.39-.18-.42-.47-.78-.9-1.08-.65-.46-1.26-.96-1.72-1.63-.19-.28-.5-.52-.59.07-.21,1.48-.23,2.93.77,4.19.54.68,1.05.92,1.6.74-.19.51-.37.97-.51,1.35-.15.39-.29.91.26,1.12.58.22.93-.17,1.14-.66.17-.39.33-.78.48-1.17.38.42.95.38,1.88-.08,2.08-1.05,3.02-2.9,3.45-5.36-1.06.82-1.93,1.49-2.97,1.87Zm-3.09-8.71c.24.02.45,0,.65-.04.07.3.14.59.19.89-.31-.26-.65-.49-.84-.85Z"/></svg>