<?xml version="1.0" encoding="UTF-8"?><svg id="Layer_1" xmlns="http://www.w3.org/2000/svg" viewBox="0 0 64 64"><defs><style>.cls-1{stroke-width:0px;}</style></defs><path class="cls-1" d="m12.97,51.15v-6.84h2.67c.78,0,1.37.15,1.78.45.41.3.61.74.61,1.31,0,.32-.07.6-.22.86-.15.25-.36.44-.62.58.37.1.67.3.88.59s.32.64.32,1.05c0,.65-.21,1.15-.64,1.49-.43.34-1.05.51-1.88.51h-2.9Zm2.53-5.6h-.9v1.54h.89c.6,0,.9-.26.9-.79,0-.5-.3-.75-.89-.75Zm.22,2.74h-1.12v1.62h1.15c.61,0,.91-.27.91-.81s-.31-.81-.94-.81Z"/><path class="cls-1" d="m18.83,51.15l2.68-6.84h1.88l2.68,6.84h-1.91l-.53-1.59h-2.48l-.53,1.59h-1.79Zm2.77-2.95h1.58l-.79-2.4-.79,2.4Z"/><path class="cls-1" d="m26.98,51.15v-6.84h2.49c.84,0,1.5.21,1.97.62.47.41.71.98.71,1.71,0,.39-.09.74-.28,1.06-.19.31-.43.57-.72.78l1.67,2.67h-1.99l-1.2-2.2h-.92v2.2h-1.73Zm2.25-5.52h-.52v2h.5c.79,0,1.18-.34,1.18-1.01s-.39-.99-1.16-.99Z"/><path class="cls-1" d="m33.72,51.15v-6.84h1.83v5.37h2.9v1.47h-4.72Z"/><path class="cls-1" d="m39.47,51.15v-6.84h4.76v1.38h-3.1v1.31h2.73v1.38h-2.73v1.4h3.22v1.38h-4.89Z"/><path class="cls-1" d="m47.41,51.15v-2.78l-2.47-4.06h2.01l1.39,2.72,1.39-2.72h1.95l-2.48,4.06v2.78h-1.79Z"/><path class="cls-1" d="m20.36,61.07v-6.84h4.66v1.43h-2.9v1.49h2.51v1.43h-2.51v2.48h-1.76Z"/><path class="cls-1" d="m26.1,61.07v-6.84h2.49c.84,0,1.5.21,1.97.62.47.41.71.98.71,1.71,0,.39-.09.74-.28,1.06-.19.31-.43.57-.72.78l1.67,2.67h-1.99l-1.2-2.2h-.92v2.2h-1.73Zm2.25-5.52h-.52v2h.5c.79,0,1.18-.34,1.18-1.01s-.39-.99-1.16-.99Z"/><path class="cls-1" d="m32.84,61.07v-6.84h4.76v1.38h-3.1v1.31h2.73v1.38h-2.73v1.4h3.22v1.38h-4.89Z"/><path class="cls-1" d="m38.95,61.07v-6.84h4.76v1.38h-3.1v1.31h2.73v1.38h-2.73v1.4h3.22v1.38h-4.89Z"/><path class="cls-1" d="m32,1.69c8.99,0,16.31,7.32,16.31,16.31s-7.32,16.31-16.31,16.31-16.31-7.32-16.31-16.31S23.01,1.69,32,1.69m0-1.69C22.06,0,14,8.06,14,18s8.06,18,18,18,18-8.06,18-18S41.94,0,32,0h0Z"/><polygon class="cls-1" points="43.68 31.5 19.05 6.79 20.32 5.62 44.95 30.34 43.68 31.5"/><path class="cls-1" d="m31.51,25.15c.55-1.18,1.03-2.39,1.43-3.63.3.3.77.48,1.35.47.62-.01,1.16-.23,1.68-.54,2.32-1.4,3.29-3.58,3.48-6.28-1.3,1.55-3.13,2.06-4.87,2.74-.31.12-.59.29-.84.49.15-.8.27-1.61.34-2.43.78.65,1.58.63,2.37-.07,1.98-1.74,2.03-7.06-.07-9.1-.16,2.11-1.38,3.65-2.36,5.34-.07-.54-.17-1.08-.29-1.61.5-.5.64-1.35.31-2.44-.57-1.87-2.01-3.34-2.26-5.63-1.69,2.54-1.78,4.96-.55,8.27-1.03-.39-1.35-1.54-2.33-2.27-.38,2.25-.38,4.27.55,6.2.74,1.53,1.77,1.99,2.77,1.37-.14,1.15-.36,2.27-.64,3.34-.06-.29-.15-.6-.3-.91-.08-.17-.16-.34-.27-.48-1.07-1.29-2.24-2.5-3.29-4.17-.56,2.32-.74,4.33.07,6.31.56,1.36,1.79,1.93,2.86,1.47.1-.04.2-.1.29-.16-.36.91-.97,2.1-1.65,3.33-.15-.66-.5-1.27-1.05-1.82-.83-.85-1.61-1.74-2.12-2.85-.21-.46-.61-.89-.88-.05-.69,2.12-1.09,4.27.05,6.39.62,1.14,1.31,1.64,2.17,1.51-.41.7-.79,1.33-1.09,1.84-.32.54-.67,1.27.09,1.72.79.47,1.42,0,1.86-.68.35-.53.69-1.06,1.01-1.6.45.72,1.31.81,2.79.37,3.34-1.01,5.2-3.5,6.47-7.02-1.77.93-3.23,1.7-4.87,1.99-.76.13-1.5.32-2.2.59Zm.85-14.11c.03.45.04.9.05,1.34-.39-.46-.83-.89-1.02-1.47.35.09.68.13.97.13Z"/></svg>