<?xml version="1.0" encoding="UTF-8"?><svg id="Layer_1" xmlns="http://www.w3.org/2000/svg" viewBox="0 0 64 64"><defs><style>.cls-1{stroke-width:0px;}</style></defs><path class="cls-1" d="m22.23,51.15v-6.84h4.76v1.38h-3.1v1.31h2.73v1.38h-2.73v1.39h3.22v1.38h-4.89Z"/><path class="cls-1" d="m31.72,51.25c-.78,0-1.46-.14-2.03-.42-.57-.28-1.02-.67-1.33-1.18s-.47-1.12-.47-1.82.17-1.37.5-1.91.8-.96,1.4-1.26,1.31-.45,2.12-.45c.41,0,.82.05,1.24.14s.79.22,1.12.38l-.29,1.45c-.69-.31-1.39-.46-2.1-.46-.44,0-.83.08-1.16.25s-.58.4-.77.71c-.18.3-.27.66-.27,1.08,0,.64.19,1.13.57,1.48.38.35.91.53,1.59.53.15,0,.3-.01.45-.03.15-.02.3-.05.45-.09v-1.11h-1.15v-1.32h2.79v3.51c-.38.17-.81.3-1.27.39-.46.09-.93.14-1.4.14Z"/><path class="cls-1" d="m39.26,51.25c-.78,0-1.46-.14-2.03-.42-.57-.28-1.02-.67-1.33-1.18s-.47-1.12-.47-1.82.17-1.37.5-1.91.8-.96,1.4-1.26,1.31-.45,2.12-.45c.41,0,.82.05,1.24.14s.79.22,1.12.38l-.29,1.45c-.69-.31-1.39-.46-2.1-.46-.44,0-.83.08-1.16.25s-.58.4-.77.71c-.18.3-.27.66-.27,1.08,0,.64.19,1.13.57,1.48.38.35.91.53,1.59.53.15,0,.3-.01.45-.03.15-.02.3-.05.45-.09v-1.11h-1.15v-1.32h2.79v3.51c-.38.17-.81.3-1.27.39-.46.09-.93.14-1.4.14Z"/><path class="cls-1" d="m20.36,61.08v-6.84h4.66v1.43h-2.9v1.49h2.51v1.43h-2.51v2.48h-1.76Z"/><path class="cls-1" d="m26.1,61.08v-6.84h2.49c.84,0,1.5.21,1.97.62.47.41.71.98.71,1.71,0,.39-.09.74-.28,1.06-.19.31-.43.57-.72.78l1.67,2.67h-1.99l-1.2-2.2h-.92v2.2h-1.73Zm2.25-5.52h-.52v2h.5c.79,0,1.18-.34,1.18-1.01s-.39-.99-1.16-.99Z"/><path class="cls-1" d="m32.84,61.08v-6.84h4.76v1.38h-3.1v1.31h2.73v1.38h-2.73v1.4h3.22v1.38h-4.89Z"/><path class="cls-1" d="m38.95,61.08v-6.84h4.76v1.38h-3.1v1.31h2.73v1.38h-2.73v1.4h3.22v1.38h-4.89Z"/><path class="cls-1" d="m32,1.69c8.99,0,16.31,7.32,16.31,16.31s-7.32,16.31-16.31,16.31-16.31-7.32-16.31-16.31S23.01,1.69,32,1.69m0-1.69C22.06,0,14,8.06,14,18s8.06,18,18,18,18-8.06,18-18S41.94,0,32,0h0Z"/><polygon class="cls-1" points="43.68 31.5 19.05 6.79 20.32 5.62 44.95 30.34 43.68 31.5"/><path class="cls-1" d="m39.78,19.22c0,5.19-3.48,9.4-7.78,9.4s-7.78-4.21-7.78-9.4,3.48-12.6,7.78-12.6c1.61,0,3.11,1.04,4.35,2.62.03.03-.56.73-.56.73l.13.53-.53-.1-.09.21-.46-.04.14.53-.18.17.12.4-.36-.06-.46.74s.2-.07.45-.26c.08-.06.26-.21.26-.21l.49.17-.16-.44.16-.12.04-.46.4.11.12-.1.53.11-.04-.52s.65-.52.67-.47c1.7,2.6,2.78,6.18,2.78,9.07Z"/></svg>