<?xml version="1.0" encoding="UTF-8"?><svg id="Layer_1" xmlns="http://www.w3.org/2000/svg" viewBox="0 0 64 64"><defs><style>.cls-1{stroke-width:0px;}</style></defs><path class="cls-1" d="m21.34,51.15v-6.84h4.66v1.43h-2.9v1.49h2.51v1.43h-2.51v2.48h-1.76Z"/><path class="cls-1" d="m27.08,51.15v-6.84h1.83v6.84h-1.83Z"/><path class="cls-1" d="m32.45,51.29c-.31,0-.61-.03-.92-.08s-.59-.12-.85-.21c-.26-.09-.48-.19-.64-.3l.16-1.46c.29.18.63.33,1.03.44.4.11.78.17,1.15.17.34,0,.59-.06.77-.17.18-.11.27-.27.27-.48,0-.13-.03-.23-.1-.32s-.19-.17-.36-.24c-.17-.07-.4-.16-.71-.25-.74-.2-1.27-.47-1.59-.81-.32-.33-.49-.77-.49-1.32,0-.65.23-1.17.7-1.54.46-.38,1.1-.56,1.9-.56.39,0,.78.05,1.17.14.39.1.71.22.97.39l-.23,1.41c-.24-.16-.53-.28-.87-.37-.34-.09-.66-.13-.96-.13-.62,0-.94.2-.94.6,0,.17.07.31.22.41.14.1.41.21.8.32.82.23,1.4.52,1.75.85s.53.77.53,1.32c0,.69-.24,1.23-.72,1.61-.48.38-1.16.57-2.03.57Z"/><path class="cls-1" d="m36.34,51.15v-6.84h1.83v2.6h2.66v-2.6h1.83v6.84h-1.83v-2.77h-2.66v2.77h-1.83Z"/><path class="cls-1" d="m20.36,61.07v-6.84h4.66v1.43h-2.9v1.49h2.51v1.43h-2.51v2.48h-1.76Z"/><path class="cls-1" d="m26.1,61.07v-6.84h2.49c.84,0,1.5.21,1.97.62s.71.98.71,1.71c0,.39-.09.74-.28,1.06-.19.31-.43.57-.72.78l1.67,2.67h-1.99l-1.2-2.2h-.92v2.2h-1.73Zm2.25-5.52h-.52v2h.5c.79,0,1.18-.34,1.18-1.01s-.39-.99-1.16-.99Z"/><path class="cls-1" d="m32.84,61.07v-6.84h4.76v1.38h-3.1v1.31h2.73v1.38h-2.73v1.4h3.22v1.38h-4.89Z"/><path class="cls-1" d="m38.95,61.07v-6.84h4.76v1.38h-3.1v1.31h2.73v1.38h-2.73v1.4h3.22v1.38h-4.89Z"/><path class="cls-1" d="m32,1.69c8.99,0,16.31,7.32,16.31,16.31s-7.32,16.31-16.31,16.31-16.31-7.32-16.31-16.31S23.01,1.69,32,1.69m0-1.69C22.06,0,14,8.06,14,18s8.06,18,18,18,18-8.06,18-18S41.94,0,32,0h0Z"/><polygon class="cls-1" points="43.68 31.5 19.05 6.79 20.32 5.62 44.95 30.34 43.68 31.5"/><path class="cls-1" d="m25.94,12.52c-4.77,2.02-7.9,6.32-7.9,6.32.03.03,2.11,2.49,4.31,1.92.12-.03.12.29.05.39-.13.21-.46.22-.71.22-1.34,0-2.76-1.09-3.49-1.74,1.02,1.23,3.8,4.25,7.4,5.89,2.69-4.39.76-11.58.34-13Zm-2.91,6.74c-.66,0-1.2-.51-1.2-1.15s.54-1.15,1.2-1.15,1.2.51,1.2,1.15-.54,1.15-1.2,1.15Z"/><path class="cls-1" d="m41.42,17.42c-.93-.98-2.28-2.25-3.91-3.35-.33-.22-.49-.85-1.91-1.92-2.24-1.68-2.35-1.52-4.43-1.62-.15,0-.71,1.04-.86,1.04-1.35,0-2.64.29-3.86.75.41,1.34,2.49,8.73-.35,13.42,1.08.44,2.23.75,3.42.85.26.02.52.03.78.03.4,0,.8-.03,1.19-.07.65-.08,1.28-.22,1.9-.41,3.74-1.14,6.82-4.06,8.37-5.76,0,0,2.77,3.95,3.77,3.49,1.09-.5-.32-2.89-.45-5.31s1.09-4.66.36-5.12c-.96-.61-4.05,3.98-4.05,3.98Z"/></svg>