<?xml version="1.0" encoding="UTF-8"?><svg id="Layer_1" xmlns="http://www.w3.org/2000/svg" viewBox="0 0 64 64"><defs><style>.cls-1{stroke-width:0px;}</style></defs><path class="cls-1" d="m17.54,51.15v-6.84h1.83v5.37h2.9v1.47h-4.73Z"/><path class="cls-1" d="m26.2,51.29c-1.01,0-1.79-.27-2.33-.8s-.82-1.3-.82-2.3v-3.88h1.83v3.75c0,1.09.44,1.64,1.32,1.64s1.32-.54,1.32-1.64v-3.75h1.83v3.88c0,1-.27,1.76-.81,2.3s-1.32.8-2.34.8Z"/><path class="cls-1" d="m30.73,51.15v-6.84h2.49c.55,0,1.03.1,1.43.28.4.19.71.46.92.81.22.35.32.76.32,1.24,0,.73-.24,1.31-.71,1.72-.47.42-1.13.62-1.96.62h-.77v2.16h-1.73Zm2.22-5.52h-.5v2.02h.5c.79,0,1.19-.34,1.19-1.02s-.4-1.01-1.19-1.01Z"/><path class="cls-1" d="m36.88,51.15v-6.84h1.83v6.84h-1.83Z"/><path class="cls-1" d="m40.14,51.15v-6.84h1.56l3.11,4.18v-4.18h1.66v6.84h-1.56l-3.11-4.18v4.18h-1.66Z"/><path class="cls-1" d="m20.36,61.07v-6.84h4.66v1.43h-2.9v1.49h2.51v1.43h-2.51v2.48h-1.76Z"/><path class="cls-1" d="m26.1,61.07v-6.84h2.49c.84,0,1.5.21,1.97.62.47.41.71.98.71,1.71,0,.39-.09.74-.28,1.06-.19.31-.43.57-.72.78l1.67,2.67h-1.99l-1.2-2.2h-.92v2.2h-1.73Zm2.25-5.52h-.52v2h.5c.79,0,1.18-.34,1.18-1.01s-.39-.99-1.16-.99Z"/><path class="cls-1" d="m32.84,61.07v-6.84h4.76v1.38h-3.1v1.31h2.73v1.38h-2.73v1.4h3.22v1.38h-4.89Z"/><path class="cls-1" d="m38.95,61.07v-6.84h4.76v1.38h-3.1v1.31h2.73v1.38h-2.73v1.4h3.22v1.38h-4.89Z"/><path class="cls-1" d="m32,1.69c8.99,0,16.31,7.32,16.31,16.31s-7.32,16.31-16.31,16.31-16.31-7.32-16.31-16.31S23.01,1.69,32,1.69m0-1.69C22.06,0,14,8.06,14,18s8.06,18,18,18,18-8.06,18-18S41.94,0,32,0h0Z"/><polygon class="cls-1" points="43.68 31.5 19.05 6.79 20.32 5.62 44.95 30.34 43.68 31.5"/><path class="cls-1" d="m32.34,20.41c0-1.32-.12-4.24-.17-5.55-.03-.66-.13-2.35-.13-2.35,0,0,.36-.7.24-.82-.13-.13-.99.14-.99.14,0,0-4.64-.32-6.15-.32-1.02,0-3.93.32-3.93.32,0,0-.74-.42-.86-.3-.1.1.18.87.18.87,0,0,.23,1.59.23,2.17,0,1.4-.44,4.79-.47,6.39-.01.92.23,3.67.23,3.67,0,0-.33.74-.2.87.12.12.88-.14.88-.14,0,0,6.15.29,8.18.29.43,0,1.64-.29,1.64-.29,0,0,1.1.43,1.27.24.17-.17-.26-1.21-.26-1.21,0,0,.3-3,.3-3.99Zm-1.83-.15c-.17.18-.99,0-.99,0h-6.22s-.77.17-.93,0c-.15-.16,0-.88,0-.88v-1.8s-.28-1.32,0-1.6c.13-.14.76,0,.76,0h6.56s.67-.15.82,0c.11.11,0,.65,0,.65v2.68s.17.78,0,.95Z"/><path class="cls-1" d="m36.96,22.39c.13-.18.16-.41.39-.48.09-.03.08-.09.03-.16-.38-.53-.79-1.01-1.38-1.32-.25-.13-.46-.14-.69,0-.06.04-.12.1-.22.09-.01-.12.06-.21.13-.29.17-.16.07-.21-.08-.27-.37-.16-.74-.05-1.11-.03-.07,0-.15.05-.23,0-.02-.12.14-.12.14-.26-.24-.03-.49-.06-.74-.09.45-.19.91-.06,1.36-.1-.42-.22-.87-.32-1.28-.56.4-.12.79,0,1.2.06-.05-.15-.18-.24-.22-.42.37.1.62.35.95.54-.06-.28.13-.42.26-.59.1-.13.21-.13.34-.06.11.06.16.12.02.22-.04.03.03.09.06.13.09.12.19.22.26.35.16.34.44.45.8.45-.11-.18-.31-.26-.43-.41-.04-.05-.12-.1-.08-.17.04-.08.12-.04.18-.03.06.01.12.03.17.04.41.12.64-.07.61-.51,0-.12-.08-.23.11-.31.11-.04-.31-1.19-.23-1.43.07-.2-.06-.38-.16-.55-.09-.15-.16-.29-.09-.46.02-.05.02-.1,0-.15-.16-.28-.71-.33-.9-.07-.15.21-.38.19-.58.2-.39,0-.75-.52-.65-.89.04-.13.12-.13.22-.09.1.04.2.09.32.14.02-.16-.07-.25-.11-.36-.09-.2-.06-.38.15-.48.09-.04.13-.09.07-.17-.08-.12-.15-.24-.14-.4,0-.1-.08-.08-.15-.04-.53.31-1.06.07-1.22-.53-.02-.06-.06-.12-.1-.18-.07-.11-.07-.18.06-.25.16-.08.19-.17,0-.26-.05-.02-.1-.06-.09-.11.08-.28-.12-.26-.28-.29-.1-.02-.22-.03-.29-.09-.12-.09-.25-.21-.25-.37.01-.19.24-.12.35-.22-.18-.1-.37-.18-.53-.3-.15-.11-.43-.2-.18-.48.03-.03.02-.07-.01-.09-.18-.13-.19-.34-.23-.53-.01-.06-.05-.13-.11-.13-.25-.04-.37-.28-.61-.35-.15-.04-.26-.15-.32-.31-.05-.14-.14-.25-.25-.35-.38-.35-.76-.7-1.23-.9-.22-.09-.41-.23-.62-.34-.17-.09-.26-.22-.32-.38-.1-.26,0-.41.27-.45.51-.07,1.02-.05,1.49.2.14.07.32.05.47.05.49,0,.94.2,1.44.23.46.03.93.17,1.35.4.14.08.24.22.28.39.01.06,0,.14.09.17.02-.01.03-.02.04-.03.07-.09-.1-.25.07-.28.17-.03.37-.04.5.13.1.13.16.26.39.25.2,0,.3.25.37.45.05.13.06.28.26.11.15-.13.35.03.41.32.11-.03.15-.24.29-.15.16.11.33.27.29.48-.06.29.04.51.17.74.04.08.06.14.16.06.08-.06.14-.25.25-.13.11.12.27.25.23.46-.02.11-.06.21-.04.32.06.03.1-.02.15-.04.13-.04.27-.2.38-.03.1.16.16.36.02.53-.15.17-.16.22.07.37.33.22.53.57.43,1.02-.06.27.24.67.24.68.05.26.3.32.44.49.09.1,0,.28-.1.4-.08.11-.12.22-.14.35-.02.22-.11.41-.29.55-.16.13-.24.28,0,.42.13.07.07.29.25.34.13.04.25.1.39.16-.09.14-.2.12-.29.03-.18-.16-.34-.17-.51,0-.23.22-.48.16-.73.08-.31-.1-.22.2-.31.32-.09.12.05.78.14.85.24.19.06,1.02.26,1.19.21.18.25.47.29.73.06.38.2.72.41,1.04.1-.02.08-.11.09-.17.07-.65.27-1.25.54-1.84.03-.06.07-.14.05-.19-.04-.19,0-.29.22-.29.13,0,.16-.14.17-.26.01-.13.05-.21.21-.19.15.02.23-.07.25-.2.05-.27.22-.39.47-.43.11-.02.21-.06.34-.1,0,.1.01.19.1.26.06.05-.29.22-.34.31-.09.17-.12.35-.18.53-.04.1-.24.38-.29.52-.07.16-.2.27-.33.39-.27.25-.48.53-.43.94.01.12-.04.22-.11.31-.07.09-.14.17-.21.26-.06.08-.18.17-.11.26.06.09.17-.02.25-.05.54-.21,1.08-.42,1.67-.48.14-.01.28-.07.41-.14.57-.29,1.2-.32,1.82-.36.06,0,.14-.01.19.07-.79.42-1.57.83-2.5.89-.54.04-1.09.07-1.61.26-.08.03-.17.03-.23.14.53-.01,1.05-.09,1.58.15-.1.07-.16.04-.22.03-.38-.08-.75-.01-1.11.08-.05.01-.11.03-.1.1.01.07.08.06.13.04.61-.21,1.2-.03,1.8.05.22.03.42,0,.62-.09.32-.13.65-.17.99,0-.25.06-.5.12-.76.16-.19.03-.05.11-.03.17-.2.03-.41,0-.6.1.05.12.21.07.26.2-.48.04-.95.09-1.46.13.23.13.41.25.57.51-.39-.18-.72-.3-1.07-.36-.08-.02-.17-.04-.25-.05-.42-.04-.45-.01-.52.41-.02.13-.04.27-.09.4-.32.81-.32,1.68-.53,2.51-.16.64-.36,1.28-.55,1.91-.13.42-.26.83-.4,1.25-.06.18-.47.31-.63.21-.09-.06-.03-.13,0-.18.12-.4.23-.81.37-1.21.29-.81.25-1.63.17-2.47-.07-.73-.13-1.47-.04-2.21.02-.14-.01-.22-.18-.18-.11.03-.22.04-.32.06Zm.87,3.06c.14-.1.13-.2.16-.29.28-.95.23-1.9.05-2.85-.01-.06.01-.15-.07-.17-.08-.02-.15.04-.2.1-.06.07-.06.16-.08.24-.11.6-.03,1.2.01,1.79.03.38.08.76.13,1.18Zm1.05-2.86c.1-.15.13-.31.13-.48,0-.08.08-.22-.1-.19-.13.03-.36-.08-.35.21,0,.22.19.31.32.45Z"/></svg>