<?xml version="1.0" encoding="UTF-8"?><svg id="Layer_1" xmlns="http://www.w3.org/2000/svg" viewBox="0 0 64 64"><defs><style>.cls-1{stroke-width:0px;}</style></defs><path class="cls-1" d="m5.94,51.25c-.76,0-1.42-.14-1.98-.43s-.98-.69-1.28-1.21c-.3-.52-.45-1.14-.45-1.86,0-.52.09-1,.27-1.43s.44-.81.77-1.12.73-.56,1.19-.73c.46-.17.96-.26,1.52-.26.39,0,.78.05,1.17.14.39.1.72.22.99.39l-.29,1.5c-.28-.14-.58-.25-.88-.32s-.6-.12-.88-.12c-.61,0-1.1.18-1.45.53-.36.35-.54.82-.54,1.41s.18,1.05.54,1.4c.36.35.84.52,1.46.52.29,0,.61-.05.95-.15.35-.1.67-.23.95-.39l.19,1.57c-.28.17-.62.3-1.04.41-.41.1-.83.15-1.23.15Z"/><path class="cls-1" d="m9.37,51.15v-6.84h2.49c.84,0,1.5.21,1.97.62.47.41.71.98.71,1.71,0,.39-.09.74-.28,1.06-.19.31-.43.57-.72.78l1.67,2.67h-1.99l-1.2-2.2h-.92v2.2h-1.73Zm2.25-5.52h-.52v2h.5c.79,0,1.18-.34,1.18-1.01s-.39-.99-1.16-.99Z"/><path class="cls-1" d="m19,51.29c-1.01,0-1.79-.27-2.33-.8s-.82-1.3-.82-2.3v-3.88h1.83v3.75c0,1.09.44,1.64,1.32,1.64s1.32-.54,1.32-1.64v-3.75h1.83v3.88c0,1-.27,1.76-.81,2.3s-1.32.8-2.34.8Z"/><path class="cls-1" d="m25.64,51.29c-.31,0-.61-.03-.92-.08s-.59-.12-.85-.21c-.26-.09-.48-.19-.64-.3l.16-1.46c.29.18.63.33,1.03.44.4.11.78.17,1.15.17.34,0,.59-.06.77-.17.18-.11.27-.27.27-.48,0-.13-.03-.23-.1-.32-.07-.09-.19-.17-.36-.24s-.4-.16-.71-.25c-.74-.2-1.27-.47-1.59-.8-.32-.33-.49-.77-.49-1.32,0-.65.23-1.17.7-1.54.46-.38,1.1-.56,1.9-.56.39,0,.78.05,1.17.14.39.1.71.22.97.39l-.23,1.41c-.24-.16-.53-.28-.87-.37-.34-.09-.66-.13-.96-.13-.62,0-.94.2-.94.6,0,.18.07.31.22.41.14.1.41.21.8.32.82.23,1.4.52,1.75.85.35.33.53.77.53,1.32,0,.69-.24,1.22-.72,1.61-.48.38-1.16.57-2.03.57Z"/><path class="cls-1" d="m31.01,51.15v-5.37h-2.1v-1.47h6.02v1.47h-2.1v5.37h-1.83Z"/><path class="cls-1" d="m34.56,51.15l2.68-6.84h1.88l2.68,6.84h-1.91l-.53-1.59h-2.48l-.53,1.59h-1.79Zm2.77-2.95h1.58l-.79-2.4-.79,2.4Z"/><path class="cls-1" d="m45.63,51.25c-.76,0-1.42-.14-1.98-.43s-.98-.69-1.28-1.21c-.3-.52-.45-1.14-.45-1.86,0-.52.09-1,.27-1.43s.44-.81.77-1.12.73-.56,1.19-.73c.46-.17.96-.26,1.52-.26.39,0,.78.05,1.17.14.39.1.72.22.99.39l-.29,1.5c-.28-.14-.58-.25-.88-.32s-.6-.12-.88-.12c-.61,0-1.1.18-1.45.53-.36.35-.54.82-.54,1.41s.18,1.05.54,1.4c.36.35.84.52,1.46.52.29,0,.61-.05.95-.15.35-.1.67-.23.95-.39l.19,1.57c-.28.17-.62.3-1.04.41-.41.1-.83.15-1.23.15Z"/><path class="cls-1" d="m49.06,51.15v-6.84h4.76v1.38h-3.1v1.31h2.73v1.38h-2.73v1.39h3.22v1.38h-4.89Z"/><path class="cls-1" d="m54.73,51.15l2.68-6.84h1.88l2.68,6.84h-1.91l-.53-1.59h-2.48l-.53,1.59h-1.79Zm2.77-2.95h1.58l-.79-2.4-.79,2.4Z"/><path class="cls-1" d="m20.36,61.08v-6.84h4.66v1.43h-2.9v1.49h2.51v1.43h-2.51v2.48h-1.76Z"/><path class="cls-1" d="m26.1,61.08v-6.84h2.49c.84,0,1.5.21,1.97.62.47.41.71.98.71,1.71,0,.39-.09.74-.28,1.06-.19.31-.43.57-.72.78l1.67,2.67h-1.99l-1.2-2.2h-.92v2.2h-1.73Zm2.25-5.52h-.52v2h.5c.79,0,1.18-.34,1.18-1.01s-.39-.99-1.16-.99Z"/><path class="cls-1" d="m32.84,61.08v-6.84h4.76v1.38h-3.1v1.31h2.73v1.38h-2.73v1.4h3.22v1.38h-4.89Z"/><path class="cls-1" d="m38.95,61.08v-6.84h4.76v1.38h-3.1v1.31h2.73v1.38h-2.73v1.4h3.22v1.38h-4.89Z"/><path class="cls-1" d="m43.17,19.77c-.54.15-1.06.38-1.54.66-.06-.64-.23-1.19-.51-1.66.03-.03.06-.06.09-.1.03-.04.06-.08.1-.12.04-.03.09-.05.13-.08.19-.09.38-.17.56-.26.14-.07.3-.15.34-.3.02-.09,0-.19-.04-.28-.11-.32-.25-.63-.41-.94,0-.02,0-.05-.01-.08-.31-1.26-.65-2.56-1.48-3.57-.14-.17-.29-.33-.36-.52-.05-.14-.07-.29-.08-.44-.03-.45-.04-.9-.17-1.33-.14-.47-.42-.89-.73-1.28-.34-.44-.74-.85-1.24-1.11-.75-.38-1.7-.35-2.42.07.06.37.53.5.85.7.21.13.38.32.55.5.18.2.37.4.55.6-.51-.12-1.11-.33-1.21-.83-.24.01-.43.23-.48.46-.05.23.02.47.09.69.24.76.59,1.49,1.02,2.17.1.16.21.32.33.46.48.53,1.2.78,1.89,1.01-.14.33.03.69.19,1,.45.83.98,1.61,1.57,2.35-.06.14-.18.27-.32.4-1.66-1.46-4.85-1.74-8.52-1.74s-6.7.14-8.39,1.51c-.15-.13-.27-.27-.34-.42.59-.74,1.12-1.52,1.57-2.35.17-.31.33-.67.19-1,.69-.23,1.41-.48,1.89-1.01.13-.14.23-.3.33-.46.43-.68.77-1.41,1.02-2.17.07-.23.14-.46.09-.69s-.24-.45-.48-.46c-.1.5-.7.71-1.21.83.18-.2.37-.4.55-.6.17-.18.34-.37.55-.5.33-.2.79-.33.85-.7-.72-.42-1.68-.45-2.42-.07-.5.26-.9.67-1.24,1.11-.31.39-.58.81-.73,1.28-.13.43-.14.88-.17,1.33-.01.15-.02.3-.08.44-.08.2-.23.36-.36.52-.83,1.01-1.16,2.31-1.48,3.57,0,.03,0,.05-.01.08-.16.3-.3.62-.41.94-.03.09-.06.19-.04.28.04.15.2.24.34.3.19.09.38.17.56.26.05.02.09.04.13.08.04.03.07.08.1.12.02.03.05.05.07.08-.33.5-.54,1.1-.6,1.84-.44-.24-.91-.44-1.39-.58-1.46.86-2.82,1.89-4.03,3.05.21.13.5.12.73.04s.44-.24.65-.38c.88-.62,1.83-1.13,2.83-1.53.28.48.73.85,1.17,1.2.11.09.21.17.32.26,0,.02.01.03.02.05-.31-.06-.62-.11-.93-.13-1.05,1.01-1.98,2.15-2.75,3.37.21.07.44,0,.63-.12.18-.12.32-.29.47-.45.61-.69,1.3-1.31,2.06-1.85.34.35.79.57,1.24.78.17.08.33.16.5.23.05.06.1.12.16.18-.27.02-.53.05-.79.11-.65,1.12-1.17,2.32-1.54,3.57.2.01.38-.1.51-.25.13-.15.21-.33.29-.5.35-.74.8-1.44,1.32-2.08.38.22.83.3,1.27.38.2.04.41.07.61.11,0,0,0-.02,0-.03,1.71,1.04,3.93,1.72,6.37,1.72,2.77,0,5.27-.87,7.04-2.16.04,0,.07-.01.11-.02.44-.08.89-.16,1.27-.38.52.64.97,1.34,1.32,2.08.08.17.16.35.29.5.13.15.32.26.51.25-.37-1.24-.89-2.44-1.54-3.57-.2-.05-.4-.08-.61-.1.02-.03.05-.06.08-.09.08-.03.15-.06.23-.09.46-.17.93-.35,1.3-.68.71.59,1.35,1.26,1.9,2,.13.17.25.35.43.49.17.13.4.22.61.16-.67-1.28-1.5-2.48-2.46-3.57-.28,0-.55,0-.83.04.09-.07.17-.14.26-.21.44-.35.89-.71,1.17-1.2,1,.4,1.95.91,2.83,1.53.21.14.41.3.65.38s.52.1.73-.04c-1.22-1.17-2.57-2.19-4.03-3.05Z"/><path class="cls-1" d="m32,1.69c8.99,0,16.31,7.32,16.31,16.31s-7.32,16.31-16.31,16.31-16.31-7.32-16.31-16.31S23.01,1.69,32,1.69m0-1.69C22.06,0,14,8.06,14,18s8.06,18,18,18,18-8.06,18-18S41.94,0,32,0h0Z"/><polygon class="cls-1" points="43.68 31.5 19.05 6.79 20.32 5.62 44.95 30.34 43.68 31.5"/></svg>