<?xml version="1.0" encoding="UTF-8"?><svg id="Layer_1" xmlns="http://www.w3.org/2000/svg" viewBox="0 0 64 64"><defs><style>.cls-1{stroke-width:0px;}</style></defs><path class="cls-1" d="m14.51,51.29c-.31,0-.61-.03-.92-.08-.31-.05-.59-.12-.86-.21s-.48-.19-.64-.3l.16-1.46c.29.18.63.33,1.03.44.4.11.78.17,1.15.17.34,0,.59-.06.77-.17.18-.11.27-.27.27-.48,0-.13-.03-.23-.1-.32-.07-.09-.19-.17-.36-.24-.17-.07-.4-.16-.71-.25-.74-.2-1.27-.47-1.59-.81s-.49-.77-.49-1.32c0-.65.23-1.17.7-1.54.46-.38,1.1-.56,1.9-.56.39,0,.78.05,1.17.14s.71.22.97.39l-.23,1.41c-.24-.16-.53-.28-.87-.37s-.66-.13-.96-.13c-.62,0-.94.2-.94.6,0,.17.07.31.22.41.14.1.41.21.8.32.82.23,1.4.52,1.75.85.35.33.53.77.53,1.32,0,.69-.24,1.23-.72,1.61-.48.38-1.16.57-2.03.57Z"/><path class="cls-1" d="m18.41,51.15v-6.84h4.76v1.38h-3.1v1.31h2.73v1.38h-2.73v1.4h3.22v1.38h-4.89Z"/><path class="cls-1" d="m26.7,51.29c-.31,0-.61-.03-.92-.08-.31-.05-.59-.12-.85-.21-.26-.09-.48-.19-.64-.3l.16-1.46c.29.18.63.33,1.03.44.4.11.78.17,1.15.17.34,0,.59-.06.77-.17.18-.11.27-.27.27-.48,0-.13-.04-.23-.1-.32-.07-.09-.19-.17-.36-.24-.17-.07-.41-.16-.71-.25-.74-.2-1.27-.47-1.59-.81-.32-.33-.49-.77-.49-1.32,0-.65.23-1.17.7-1.54s1.1-.56,1.9-.56c.39,0,.78.05,1.17.14.39.1.71.22.97.39l-.22,1.41c-.24-.16-.53-.28-.87-.37-.34-.09-.66-.13-.96-.13-.62,0-.94.2-.94.6,0,.17.07.31.22.41.14.1.41.21.8.32.82.23,1.4.52,1.75.85.35.33.53.77.53,1.32,0,.69-.24,1.23-.72,1.61s-1.16.57-2.03.57Z"/><path class="cls-1" d="m29.86,51.15l2.68-6.84h1.88l2.68,6.84h-1.91l-.53-1.59h-2.48l-.53,1.59h-1.79Zm2.77-2.95h1.58l-.79-2.4-.79,2.4Z"/><path class="cls-1" d="m38.01,51.15v-6.84h1.93l1.84,3.82,1.84-3.82h1.88v6.84h-1.67v-4.28l-1.36,2.81h-1.4l-1.37-2.83v4.29h-1.67Z"/><path class="cls-1" d="m46.91,51.15v-6.84h4.76v1.38h-3.1v1.31h2.73v1.38h-2.73v1.4h3.22v1.38h-4.89Z"/><path class="cls-1" d="m20.36,61.07v-6.84h4.66v1.43h-2.9v1.49h2.51v1.43h-2.51v2.48h-1.76Z"/><path class="cls-1" d="m26.1,61.07v-6.84h2.49c.84,0,1.5.21,1.97.62.47.41.71.98.71,1.71,0,.39-.09.74-.28,1.06-.19.31-.43.57-.72.78l1.67,2.67h-1.99l-1.2-2.2h-.92v2.2h-1.73Zm2.25-5.52h-.52v2h.5c.79,0,1.18-.34,1.18-1.01s-.39-.99-1.16-.99Z"/><path class="cls-1" d="m32.84,61.07v-6.84h4.76v1.38h-3.1v1.31h2.73v1.38h-2.73v1.4h3.22v1.38h-4.89Z"/><path class="cls-1" d="m38.95,61.07v-6.84h4.76v1.38h-3.1v1.31h2.73v1.38h-2.73v1.4h3.22v1.38h-4.89Z"/><path class="cls-1" d="m32,1.69c8.99,0,16.31,7.32,16.31,16.31s-7.32,16.31-16.31,16.31-16.31-7.32-16.31-16.31S23.01,1.69,32,1.69m0-1.69C22.06,0,14,8.06,14,18s8.06,18,18,18,18-8.06,18-18S41.94,0,32,0h0Z"/><polygon class="cls-1" points="43.68 31.5 19.05 6.79 20.32 5.62 44.95 30.34 43.68 31.5"/><path class="cls-1" d="m38.35,23.96c-1.41-1.04-2.04-3.48-1.13-4.58.86-1.03,1.83-.76,2.72-.12,1.35.96,1.96,3.52,1.14,4.61-.6.8-1.72.84-2.73.08Z"/><path class="cls-1" d="m25.46,26.02c-.95-1.08-2.23-2.2-1.12-3.7,1.04-1.4,2.47-.61,3.47.16,1.14.88,2.24,2.15,1.16,3.63-1.04,1.43-2.36.42-3.51-.09Z"/><path class="cls-1" d="m23.92,13.92c1.54,1.17,2.15,3.61,1.2,4.66-.9.99-1.87.73-2.74.06-1.39-1.07-1.88-3.64-.92-4.63.86-.89,1.73-.55,2.46-.09Z"/><path class="cls-1" d="m30.92,17.46c1.34,1.03,1.95,3.62,1.04,4.64-.82.92-1.74.68-2.57.11-1.45-.99-2.08-3.45-1.22-4.57.65-.84,1.78-.91,2.75-.18Z"/><path class="cls-1" d="m33.43,17.48c-1.48-1.1-2.02-3.51-1.08-4.62.8-.94,1.69-.76,2.52-.19,1.38.95,2.02,3.47,1.18,4.56-.84,1.08-1.78.75-2.62.25Z"/><path class="cls-1" d="m39.4,16.66c-1.5-1.11-2.13-3.61-1.26-4.69.87-1.08,1.8-.73,2.68-.08,1.46,1.08,1.96,3.43.96,4.54-.82.92-1.68.69-2.38.23Z"/><path class="cls-1" d="m32.02,26.92c-.76-.65-1.19-1.47-.29-2.49.89-1.01,3.36-1.03,4.69,0,.86.66,1.39,1.49.56,2.55-.87,1.12-3.46,1.11-4.96-.06Z"/><path class="cls-1" d="m27.59,9.76c1.46,1.17,2.06,3.58,1.18,4.57-.9,1.01-1.86.68-2.73,0-1.34-1.05-1.93-3.44-1.04-4.44.91-1.02,1.85-.66,2.59-.12Z"/></svg>