<svg id="Layer_1" data-name="Layer 1" xmlns="http://www.w3.org/2000/svg" viewBox="0 0 64 64"><path d="M27.36,44.92a58,58,0,0,0,4.21-5.69,3.33,3.33,0,0,0,2.15,1.46,6.1,6.1,0,0,0,3.2-.17c4.72-1.38,7.44-4.74,9-9.38-3,2.11-6.45,2.14-9.82,2.53a5.7,5.7,0,0,0-1.71.47c.64-1.33,1.22-2.69,1.74-4.11a3,3,0,0,0,4.18,1c4.28-2.12,6.86-11.42,4.13-16-1.26,3.62-4.13,5.76-6.64,8.25a29.34,29.34,0,0,0,.25-2.95c1.11-.64,1.75-2.07,1.68-4.14-.12-3.54-2-6.79-1.34-10.93C34.27,9,33,13.15,33.59,19.52c-1.62-1.17-1.65-3.33-3-5.08-1.72,3.76-2.66,7.3-1.93,11.13.58,3,2.17,4.31,4.21,3.69a45.24,45.24,0,0,1-2.69,5.55,6.89,6.89,0,0,0-.1-1.73,3.76,3.76,0,0,0-.25-1A66.38,66.38,0,0,1,26,23.26c-2.06,3.8-3.32,7.25-2.82,11.09.34,2.65,2.23,4.22,4.32,3.92a2.74,2.74,0,0,0,.58-.15,55.85,55.85,0,0,1-4.45,5.08,6.92,6.92,0,0,0-1-3.69,18.42,18.42,0,0,1-2.38-6c-.16-.9-.66-1.84-1.53-.5-2.2,3.4-3.91,7-2.89,11.22.55,2.29,1.53,3.48,3.1,3.66l-2.78,2.72c-.8.79-1.77,1.92-.64,3.06s2.49.65,3.57-.32c.85-.76,1.7-1.54,2.52-2.33.45,1.47,1.92,2,4.73,1.94,6.33-.2,10.74-3.7,14.61-9.28-3.54.81-6.45,1.47-9.46,1.22A20.35,20.35,0,0,0,27.36,44.92Zm8.08-24.33q-.24,1.2-.54,2.37a8.53,8.53,0,0,1-1.1-3.06A7,7,0,0,0,35.44,20.59Z"/><path d="M32,3A29,29,0,1,1,3,32,29,29,0,0,1,32,3m0-3A32,32,0,1,0,64,32,32,32,0,0,0,32,0Z"/><rect x="30" y="1.09" width="3" height="60.83" transform="translate(-13.04 30.46) rotate(-43.67)"/></svg>