<svg id="Layer_1" data-name="Layer 1" xmlns="http://www.w3.org/2000/svg" viewBox="0 0 64 64"><path d="M32,0A32,32,0,1,0,64,32,32,32,0,0,0,32,0Zm0,61A29,29,0,0,1,10.92,12.11L23.81,25.62a15.76,15.76,0,0,0-1.64,8.73c.34,2.65,2.23,4.22,4.32,3.92a2.74,2.74,0,0,0,.58-.15,55.85,55.85,0,0,1-4.45,5.08,6.92,6.92,0,0,0-1-3.69,18.42,18.42,0,0,1-2.38-6c-.16-.9-.66-1.84-1.53-.5-2.2,3.4-3.91,7-2.89,11.22.55,2.29,1.53,3.48,3.1,3.66l-2.78,2.72c-.8.79-1.77,1.92-.64,3.06s2.49.65,3.57-.32c.85-.76,1.7-1.54,2.52-2.33.45,1.47,1.92,2,4.73,1.94,6.33-.2,10.74-3.7,14.61-9.28-3.54.81-6.45,1.47-9.46,1.22a20.35,20.35,0,0,0-4.13,0,58,58,0,0,0,4.21-5.69,3.33,3.33,0,0,0,2.15,1.46,6.1,6.1,0,0,0,3.2-.17c.55-.17,1.07-.36,1.57-.57L50.88,54A28.83,28.83,0,0,1,32,61Zm.8-41.1a7,7,0,0,0,1.64.69q-.24,1.2-.54,2.37A8.53,8.53,0,0,1,32.8,19.9Zm-1.08,9.66-.22-.23c.12,0,.23,0,.35-.07C31.81,29.36,31.76,29.45,31.72,29.56ZM30.38,32.5c-.39.79-.79,1.56-1.22,2.31a6.89,6.89,0,0,0-.1-1.73,3.76,3.76,0,0,0-.25-1c-.4-.85-.81-1.69-1.22-2.54ZM53.06,51.91,40.14,38.38A15,15,0,0,0,45,31.14c-2.86,2-6.13,2.13-9.35,2.48l-1.32-1.38c.31-.72.6-1.46.88-2.21a3,3,0,0,0,4.18,1c4.28-2.12,6.86-11.42,4.13-16-1.26,3.62-4.13,5.76-6.64,8.25a29.34,29.34,0,0,0,.25-2.95c1.11-.64,1.75-2.07,1.68-4.14-.12-3.54-2-6.79-1.34-10.93C33.27,9,32,13.15,32.59,19.52c-1.62-1.17-1.65-3.33-3-5.08-1.67,3.65-2.59,7.1-2,10.79L13.09,10a29,29,0,0,1,40,41.87Z"/></svg>