<?xml version="1.0" encoding="utf-8"?>
<!-- Generator: Adobe Illustrator 20.1.0, SVG Export Plug-In . SVG Version: 6.00 Build 0)  -->
<svg version="1.1" id="Layer_1" xmlns="http://www.w3.org/2000/svg" xmlns:xlink="http://www.w3.org/1999/xlink" x="0px" y="0px"
	 viewBox="0 0 64 64" style="enable-background:new 0 0 64 64;" xml:space="preserve">
<g>
	<path d="M23,36.2h7.9v4.5c-1,0.8-2.3,1.5-3.7,2.1c-1.4,0.6-2.9,0.9-4.3,0.9c-2.9,0-5.3-1-7-3.1c-1.8-2.1-2.7-5.2-2.7-9.4
		c0-3.9,0.9-6.8,2.7-8.7c1.8-2,4.2-2.9,7.2-2.9c2,0,3.6,0.5,5,1.5c1.3,1,2.2,2.4,2.7,4.1l6.8-1.3c-0.7-3.2-2.2-5.8-4.6-7.6
		c-2.4-1.8-5.7-2.7-9.9-2.7c-3.2,0-6,0.6-8.1,1.7c-2.9,1.5-5,3.7-6.5,6.5S6,27.7,6,31.4c0,3.4,0.7,6.5,2,9.3c1.3,2.9,3.3,5.1,6,6.6
		c2.6,1.5,5.7,2.3,9.3,2.3c2.8,0,5.6-0.5,8.3-1.6c2.7-1.1,4.8-2.4,6.2-3.8v-14H23V36.2z"/>
	<path d="M52.1,40.8c-1,0.4-1.9,0.8-2.8,1.3c0.5-1.7,0.8-3.4,1.1-5.1c0.5,0.3,1.1,0.5,1.9,0.3c0.8-0.2,1.5-0.6,2.1-1.1
		c2.7-2.4,3.5-5.5,3.1-9.1c-1.3,2.3-3.6,3.4-5.8,4.7c-0.4,0.2-0.7,0.5-1,0.9c0-1.1,0-2.2-0.1-3.3c1.2,0.7,2.2,0.5,3.1-0.6
		c2.2-2.7,1-9.8-2.2-12c0.3,2.8-1,5.1-1.9,7.6c-0.2-0.7-0.5-1.4-0.8-2.1c0.5-0.8,0.5-1.9-0.1-3.3c-1.2-2.3-3.4-3.9-4.3-6.9
		c-1.6,3.7-1.2,6.9,1.2,11c-1.4-0.3-2.1-1.7-3.6-2.5c0,3,0.5,5.7,2.2,8c1.3,1.8,2.8,2.2,3.9,1.2c0.1,1.6,0.1,3.1-0.1,4.6
		c-0.1-0.4-0.3-0.8-0.6-1.1c-0.1-0.2-0.3-0.4-0.5-0.6c-1.7-1.4-3.5-2.8-5.3-4.7c-0.2,3.2,0,5.9,1.5,8.3c1,1.7,2.8,2.1,4.1,1.3
		c0.1-0.1,0.2-0.2,0.3-0.3c-0.3,1.3-0.8,3-1.4,4.8c-0.4-0.8-0.9-1.6-1.8-2.2C43.2,39,42,38.1,41,36.7c-0.4-0.6-1-1-1.2,0.1
		c-0.4,3-0.5,5.9,1.5,8.4c1.1,1.4,2.1,1.8,3.2,1.5c-0.4,1-0.7,1.9-1,2.7c-0.3,0.8-0.6,1.8,0.5,2.2c1.2,0.4,1.9-0.3,2.3-1.3
		c0.3-0.8,0.7-1.6,1-2.3c0.8,0.8,1.9,0.8,3.8-0.2c4.2-2.1,6-5.8,6.9-10.7C55.9,38.7,54.1,40.1,52.1,40.8z M45.9,23.4
		c0.5,0,0.9,0,1.3-0.1c0.1,0.6,0.3,1.2,0.4,1.8C46.9,24.6,46.3,24.1,45.9,23.4z"/>
</g>
</svg>
