<?xml version="1.0" encoding="utf-8"?>
<!-- Generator: Adobe Illustrator 20.1.0, SVG Export Plug-In . SVG Version: 6.00 Build 0)  -->
<svg version="1.1" id="Layer_1" xmlns="http://www.w3.org/2000/svg" xmlns:xlink="http://www.w3.org/1999/xlink" x="0px" y="0px"
	 viewBox="0 0 64 64" style="enable-background:new 0 0 64 64;" xml:space="preserve">
<g>
	<g>
		<g>
			<g>
				<g>
					<path d="M35.7,21.4c-0.1-0.2-2.4-5.1-4.7-8.1c0.5-0.3,0.9-1,0.9-1.7c0-1.1-0.7-1.9-1.5-1.9H19.8c-0.8,0-1.5,0.9-1.5,1.9
						c0,0.8,0.3,1.4,0.9,1.7c-2.3,3-4.6,7.9-4.7,8.1l-0.1,0.3V22v27.2c0,2.8,2.4,5.1,5.3,5.1h10.9c2.9,0,5.3-2.3,5.3-5.1V22v-0.3
						L35.7,21.4z M24.9,22c-3.7,2.7-9,0-9,0s2.8-5.9,5.1-8.5h8.2c2.3,2.7,5.1,8.5,5.1,8.5S28.6,19.3,24.9,22z"/>
				</g>
			</g>
			<g>
				<g>
					<path d="M36.4,37.1l1.3,16.8h10.6l1.3-16.8H36.4z M43.2,41.9c-1.6,1-5.4,0-5.4,0L37.4,38h11.2l-0.3,3.9
						C48.4,41.9,44.7,40.9,43.2,41.9z"/>
				</g>
			</g>
		</g>
	</g>
</g>
</svg>
