<?xml version="1.0" encoding="utf-8"?>
<!-- Generator: Adobe Illustrator 20.1.0, SVG Export Plug-In . SVG Version: 6.00 Build 0)  -->
<svg version="1.1" id="Layer_1" xmlns="http://www.w3.org/2000/svg" xmlns:xlink="http://www.w3.org/1999/xlink" x="0px" y="0px"
	 viewBox="0 0 64 64" style="enable-background:new 0 0 64 64;" xml:space="preserve">
<g>
	<g>
		<g>
			<path d="M45.5,43.3c-2.8-2.1-4.2-7-2.4-9.1c1.7-2,3.6-1.4,5.4-0.1c2.7,1.9,4,7,2.5,9.2C49.8,44.8,47.6,44.8,45.5,43.3z"/>
			<path d="M19.9,46.9c-1.9-2.2-4.5-4.4-2.4-7.4c2-2.7,4.9-1.1,6.9,0.4c2.3,1.8,4.5,4.3,2.4,7.2C24.8,50,22.2,47.9,19.9,46.9z"/>
			<path d="M16.3,22.9c3.1,2.4,4.4,7.2,2.6,9.3c-1.8,1.9-3.7,1.4-5.5,0c-2.8-2.2-3.9-7.3-2-9.2C13.1,21.3,14.9,22,16.3,22.9z"/>
			<path d="M30.4,30.2c2.7,2.1,4,7.2,2.2,9.2c-1.6,1.8-3.4,1.3-5.1,0.1c-2.9-2-4.3-6.9-2.6-9.1C26.2,28.8,28.5,28.7,30.4,30.2z"/>
			<path d="M35.5,30.3c-3-2.2-4.2-7-2.3-9.2c1.6-1.8,3.3-1.4,5-0.3c2.8,1.9,4.2,6.9,2.5,9.1C39,32,37.1,31.3,35.5,30.3z"/>
			<path d="M47.3,28.9c-3-2.3-4.4-7.2-2.7-9.3c1.7-2.1,3.6-1.4,5.3-0.1c3,2.2,4,6.9,2.1,9C50.5,30.3,48.7,29.8,47.3,28.9z"/>
			<path d="M33,48.9c-1.5-1.3-2.4-2.9-0.7-4.9c1.7-2,6.7-1.9,9.3,0.2c1.7,1.3,2.8,3,1.2,5.1C41.2,51.4,36,51.3,33,48.9z"/>
			<path d="M23.5,14.8c3,2.4,4.2,7.2,2.5,9.1c-1.8,2-3.7,1.3-5.4-0.1c-2.7-2.1-4-6.9-2.2-8.8C20.1,13,22,13.7,23.5,14.8z"/>
		</g>
	</g>
</g>
</svg>
