<?xml version="1.0" encoding="utf-8"?>
<!-- Generator: Adobe Illustrator 20.1.0, SVG Export Plug-In . SVG Version: 6.00 Build 0)  -->
<svg version="1.1" id="Layer_1" xmlns="http://www.w3.org/2000/svg" xmlns:xlink="http://www.w3.org/1999/xlink" x="0px" y="0px"
	 viewBox="0 0 64 64" style="enable-background:new 0 0 64 64;" xml:space="preserve">
<path d="M48.5,10.2c0,0-5.2,0.2-6.5,3.5c-1.3,3.2,3,9.4,1.4,10.5c-0.4,0.3-2.5,0.3-2.9,0.6c-0.4,0.3-0.6,0.6-0.7,1l-0.5,1.4
	l-7.4,19.1c-0.5,1.4-1,2.9-1.3,4.7c-0.2-0.9-0.4-1.7-0.7-2.5c-0.2-0.8-0.5-1.5-0.8-2.2l-7.9-20.6c-0.2-0.4-0.4-1.4-0.8-1.7
	C20,23.8,19.5,23,19,23h-5.1l13.6,35h5.7c0,0,10.2-22.8,12.4-30.8c0.2-0.6-1.2-2.5-0.6-3C53.8,16.2,48.5,10.2,48.5,10.2z"/>
</svg>
